<svg width="512" height="512" version="1.1" xmlns="http://www.w3.org/2000/svg" desc="Created with imagetracer.js version 1.2.6" ><path fill="rgb(249,182,29)" stroke="rgb(249,182,29)" stroke-width="1" opacity="0.9882352941176471" d="M 341.5 120 L 344 122.5 L 319.5 147 L 317 143.5 L 331.5 129 L 333 129 Q 331.9 126.3 334.5 127 L 341.5 120 Z " /><path fill="rgb(249,182,29)" stroke="rgb(249,182,29)" stroke-width="1" opacity="0.9882352941176471" d="M 348.5 127 L 354 133.5 L 329.5 157 L 324 151.5 L 348.5 127 Z " /><path fill="rgb(249,182,29)" stroke="rgb(249,182,29)" stroke-width="1" opacity="0.9882352941176471" d="M 358.5 138 L 364 142.5 L 340.5 167 L 335 162.5 L 358.5 138 Z " /><path fill="rgb(249,182,29)" stroke="rgb(249,182,29)" stroke-width="1" opacity="0.9882352941176471" d="M 368.5 148 L 375 153.5 L 350.5 178 L 345 172.5 L 368.5 148 Z " /><path fill="rgb(249,182,29)" stroke="rgb(249,182,29)" stroke-width="1" opacity="0.9882352941176471" d="M 310.5 149 Q 314.5 148.5 315 151.5 L 289.5 176 L 286 172.5 L 295.5 163 L 310.5 149 Z " /><path fill="rgb(249,182,29)" stroke="rgb(249,182,29)" stroke-width="1" opacity="0.9882352941176471" d="M 319.5 156 L 325 162.5 L 300.5 187 L 295 181.5 L 319.5 156 Z " /><path fill="rgb(249,182,29)" stroke="rgb(249,182,29)" stroke-width="1" opacity="0.9882352941176471" d="M 379.5 158 L 382 160.5 L 368 174.5 L 358.5 185 L 355 182.5 L 379.5 158 Z " /><path fill="rgb(249,182,29)" stroke="rgb(249,182,29)" stroke-width="1" opacity="0.9882352941176471" d="M 329.5 167 L 335 171.5 L 310.5 197 L 305 191.5 L 329.5 167 Z " /><path fill="rgb(249,182,29)" stroke="rgb(249,182,29)" stroke-width="1" opacity="0.9882352941176471" d="M 339.5 177 L 346 182.5 L 320.5 207 L 315 201.5 L 339.5 177 Z " /><path fill="rgb(249,182,29)" stroke="rgb(249,182,29)" stroke-width="1" opacity="0.9882352941176471" d="M 280.5 178 L 285 181.5 L 263.5 202 L 259.5 197 L 280.5 178 Z " /><path fill="rgb(249,182,29)" stroke="rgb(249,182,29)" stroke-width="1" opacity="0.9882352941176471" d="M 289.5 186 L 295 192.5 L 274.5 213 L 269 207.5 L 289.5 186 Z " /><path fill="rgb(249,182,29)" stroke="rgb(249,182,29)" stroke-width="1" opacity="0.9882352941176471" d="M 350.5 187 L 353 190.5 L 329.5 216 L 326 211.5 L 350.5 187 Z " /><path fill="rgb(249,182,29)" stroke="rgb(249,182,29)" stroke-width="1" opacity="0.9882352941176471" d="M 299.5 197 L 305 201.5 L 284.5 223 L 279 217.5 L 299.5 197 Z " /><path fill="rgb(249,182,29)" stroke="rgb(249,182,29)" stroke-width="1" opacity="0.9882352941176471" d="M 253.5 203 L 259 207.5 L 237.5 228 L 233 222.5 L 242 215 Q 240.9 212.3 243.5 213 L 253.5 203 Z " /><path fill="rgb(249,182,29)" stroke="rgb(249,182,29)" stroke-width="1" opacity="0.9882352941176471" d="M 309.5 207 L 316 212.5 L 294.5 233 L 289 227.5 L 309.5 207 Z " /><path fill="rgb(249,182,29)" stroke="rgb(249,182,29)" stroke-width="1" opacity="0.9882352941176471" d="M 263.5 212 L 269 218.5 L 248.5 239 L 243 233.5 L 263.5 212 Z " /><path fill="rgb(249,182,29)" stroke="rgb(249,182,29)" stroke-width="1" opacity="0.9882352941176471" d="M 320.5 217 L 324 221.5 L 304.5 242 L 300 238.5 L 320.5 217 Z " /><path fill="rgb(249,182,29)" stroke="rgb(249,182,29)" stroke-width="1" opacity="0.9882352941176471" d="M 273.5 223 L 279 227.5 L 258.5 249 L 253 243.5 L 273.5 223 Z " /><path fill="rgb(249,182,29)" stroke="rgb(249,182,29)" stroke-width="1" opacity="0.9882352941176471" d="M 227.5 228 L 233 233.5 L 212.5 254 L 206 248.5 L 227.5 228 Z " /><path fill="rgb(249,182,29)" stroke="rgb(249,182,29)" stroke-width="1" opacity="0.9882352941176471" d="M 283.5 233 L 290 238.5 L 268.5 259 L 263 253.5 L 283.5 233 Z " /><path fill="rgb(249,182,29)" stroke="rgb(249,182,29)" stroke-width="1" opacity="0.9882352941176471" d="M 237.5 238 L 244 243.5 L 222.5 265 L 217 259.5 L 237.5 238 Z " /><path fill="rgb(249,182,29)" stroke="rgb(249,182,29)" stroke-width="1" opacity="0.9882352941176471" d="M 294.5 243 L 299 248.5 L 279.5 269 L 274 264.5 L 294.5 243 Z " /><path fill="rgb(249,182,29)" stroke="rgb(249,182,29)" stroke-width="1" opacity="0.9882352941176471" d="M 247.5 249 L 253 253.5 L 232.5 275 L 227 269.5 L 247.5 249 Z " /><path fill="rgb(249,182,29)" stroke="rgb(249,182,29)" stroke-width="1" opacity="0.9882352941176471" d="M 201.5 253 L 207 259.5 L 190.5 276 L 184 269.5 L 201.5 253 Z " /><path fill="rgb(249,182,29)" stroke="rgb(249,182,29)" stroke-width="1" opacity="0.9882352941176471" d="M 257.5 259 L 264 264.5 L 242.5 285 L 237 279.5 L 257.5 259 Z " /><path fill="rgb(249,182,29)" stroke="rgb(249,182,29)" stroke-width="1" opacity="0.9882352941176471" d="M 211.5 264 L 218 269.5 L 200.5 286 L 195 280.5 L 211.5 264 Z " /><path fill="rgb(249,182,29)" stroke="rgb(249,182,29)" stroke-width="1" opacity="0.9882352941176471" d="M 268.5 269 L 274 274.5 L 265 283.5 L 253.5 296 L 248 289.5 L 268.5 269 Z " /><path fill="rgb(249,182,29)" stroke="rgb(249,182,29)" stroke-width="1" opacity="0.9882352941176471" d="M 222.5 274 L 228 279.5 L 211.5 296 L 206 291.5 L 222.5 274 Z " /><path fill="rgb(249,182,29)" stroke="rgb(249,182,29)" stroke-width="1" opacity="0.9882352941176471" d="M 231.5 285 L 233.5 285 L 238 289.5 L 221.5 307 L 216 300.5 L 231.5 285 Z " /><path fill="rgb(249,182,29)" stroke="rgb(249,182,29)" stroke-width="1" opacity="0.9882352941176471" d="M 242.5 295 L 249 300.5 L 232.5 318 L 226 311.5 L 242.5 295 Z " /><path fill="rgb(249,182,29)" stroke="rgb(249,182,29)" stroke-width="1" opacity="0.9882352941176471" d="M 143.5 304 Q 153.9 302.6 156 309.5 L 140.5 326 L 135 321.5 L 134 313.5 L 141.5 305 L 143.5 304 Z " /><path fill="rgb(249,182,29)" stroke="rgb(249,182,29)" stroke-width="1" opacity="0.9882352941176471" d="M 160.5 315 L 167 320.5 L 151.5 336 L 149.5 336 L 145 330.5 L 160.5 315 Z " /><path fill="rgb(249,182,29)" stroke="rgb(249,182,29)" stroke-width="1" opacity="0.9882352941176471" d="M 171.5 325 L 177 330.5 L 160.5 347 L 155 341.5 L 171.5 325 Z " /><path fill="rgb(249,182,29)" stroke="rgb(249,182,29)" stroke-width="1" opacity="0.9882352941176471" d="M 181.5 335 L 187 341.5 L 170.5 357 L 165 351.5 L 181.5 335 Z " /><path fill="rgb(249,182,29)" stroke="rgb(249,182,29)" stroke-width="1" opacity="0.9882352941176471" d="M 107.5 342 Q 114.9 343.1 118 348.5 L 101.5 365 L 96 359.5 L 95 353.5 L 96 350.5 L 103.5 343 L 107.5 342 Z " /><path fill="rgb(249,182,29)" stroke="rgb(249,182,29)" stroke-width="1" opacity="0.9882352941176471" d="M 191.5 346 L 197 350.5 L 198 358.5 L 190.5 367 L 183.5 368 L 176 362.5 L 191.5 346 Z " /><path fill="rgb(249,182,29)" stroke="rgb(249,182,29)" stroke-width="1" opacity="0.9882352941176471" d="M 122.5 353 L 128 359.5 L 111.5 375 L 106 369.5 L 122.5 353 Z " /><path fill="rgb(249,182,29)" stroke="rgb(249,182,29)" stroke-width="1" opacity="0.9882352941176471" d="M 132.5 364 L 138 368.5 L 122.5 385 L 117 380.5 L 132.5 364 Z " /><path fill="rgb(249,182,29)" stroke="rgb(249,182,29)" stroke-width="1" opacity="0.9882352941176471" d="M 58.5 371 Q 65.5 370 68.5 373 L 81 385.5 L 53 412.5 L 38 389.5 L 54.5 373 L 58.5 371 Z " /><path fill="rgb(249,182,29)" stroke="rgb(249,182,29)" stroke-width="1" opacity="0.9882352941176471" d="M 142.5 374 L 149 379.5 L 132.5 396 L 127 390.5 L 142.5 374 Z " /><path fill="rgb(249,182,29)" stroke="rgb(249,182,29)" stroke-width="1" opacity="0.9882352941176471" d="M 153.5 384 Q 160.6 386.4 159 397.5 L 152.5 405 L 146.5 407 Q 140 405.5 137 400.5 L 153.5 384 Z " /><path fill="rgb(249,182,29)" stroke="rgb(249,182,29)" stroke-width="1" opacity="0.9882352941176471" d="M 85.5 390 L 91 396.5 L 63.5 424 L 62 424 L 58 417.5 L 85.5 390 Z " /><path fill="rgb(249,182,29)" stroke="rgb(249,182,29)" stroke-width="1" opacity="0.9882352941176471" d="M 95.5 401 L 101 405.5 L 73.5 434 L 68 429.5 L 95.5 401 Z " /><path fill="rgb(249,182,29)" stroke="rgb(249,182,29)" stroke-width="1" opacity="0.9882352941176471" d="M 105.5 411 L 112 416.5 L 83.5 445 L 79.5 441 Q 76.9 441.8 78 438.5 L 105.5 411 Z " /><path fill="rgb(249,182,29)" stroke="rgb(249,182,29)" stroke-width="1" opacity="0.9882352941176471" d="M 116.5 421 L 129 433.5 Q 131.8 436.2 131 442.5 L 128 448.5 L 110.5 466 L 88 449.5 L 116.5 421 Z " /><path fill="rgb(249,182,29)" stroke="rgb(249,182,29)" stroke-width="1" opacity="0.9882352941176471" d="M 161.5 452 Q 171.6 450.9 175 456.5 Q 179.5 460 178 469.5 Q 176.6 475.6 171.5 478 Q 168.6 480.6 162.5 480 L 154 476 L 151 470.5 L 150 465.5 Q 151.2 457.7 156.5 454 L 161.5 452 Z " /><path fill="rgb(96,78,78)" stroke="rgb(96,78,78)" stroke-width="1" opacity="0.9607843137254902" d="M 472.5 51 L 475 51.5 L 472.5 52 L 472.5 51 Z " /><path fill="rgb(96,78,78)" stroke="rgb(96,78,78)" stroke-width="1" opacity="0.9607843137254902" d="M 470.5 52 L 468.5 55 L 470.5 52 Z " /><path fill="rgb(96,78,78)" stroke="rgb(96,78,78)" stroke-width="1" opacity="0.9607843137254902" d="M 483.5 57 L 484 61.5 L 483 61.5 L 483.5 57 Z " /><path fill="rgb(96,78,78)" stroke="rgb(96,78,78)" stroke-width="1" opacity="0.9607843137254902" d="M 456.5 58 L 457.5 60 L 456.5 58 Z " /><path fill="rgb(96,78,78)" stroke="rgb(96,78,78)" stroke-width="1" opacity="0.9607843137254902" d="M 422.5 63 L 420.5 66 L 422.5 63 Z " /><path fill="rgb(96,78,78)" stroke="rgb(96,78,78)" stroke-width="1" opacity="0.9607843137254902" d="M 459.5 63 L 460 66.5 L 459 66.5 L 459.5 63 Z " /><path fill="rgb(96,78,78)" stroke="rgb(96,78,78)" stroke-width="1" opacity="0.9607843137254902" d="M 433.5 65 L 434.5 67 L 433.5 65 Z " /><path fill="rgb(96,78,78)" stroke="rgb(96,78,78)" stroke-width="1" opacity="0.9607843137254902" d="M 481.5 65 L 480.5 67 L 481.5 65 Z " /><path fill="rgb(96,78,78)" stroke="rgb(96,78,78)" stroke-width="1" opacity="0.9607843137254902" d="M 359.5 67 L 358.5 69 L 359.5 67 Z " /><path fill="rgb(96,78,78)" stroke="rgb(96,78,78)" stroke-width="1" opacity="0.9607843137254902" d="M 408.5 69 L 409.5 71 L 408.5 69 Z " /><path fill="rgb(96,78,78)" stroke="rgb(96,78,78)" stroke-width="1" opacity="0.9607843137254902" d="M 435.5 69 L 436 72.5 L 435 72.5 L 435.5 69 Z " /><path fill="rgb(96,78,78)" stroke="rgb(96,78,78)" stroke-width="1" opacity="0.9607843137254902" d="M 458.5 69 L 455.5 73 L 458.5 69 Z " /><path fill="rgb(96,78,78)" stroke="rgb(96,78,78)" stroke-width="1" opacity="0.9607843137254902" d="M 355.5 70 L 348.5 78 L 355.5 70 Z " /><path fill="rgb(96,78,78)" stroke="rgb(96,78,78)" stroke-width="1" opacity="0.9607843137254902" d="M 444.5 70 L 446.5 73 L 444.5 70 Z " /><path fill="rgb(96,78,78)" stroke="rgb(96,78,78)" stroke-width="1" opacity="0.9607843137254902" d="M 449.5 73 L 454 73.5 L 449.5 74 L 449.5 73 Z " /><path fill="rgb(96,78,78)" stroke="rgb(96,78,78)" stroke-width="1" opacity="0.9607843137254902" d="M 374.5 74 L 371.5 78 L 374.5 74 Z " /><path fill="rgb(96,78,78)" stroke="rgb(96,78,78)" stroke-width="1" opacity="0.9607843137254902" d="M 411.5 74 L 412 77.5 L 411 77.5 L 411.5 74 Z " /><path fill="rgb(96,78,78)" stroke="rgb(96,78,78)" stroke-width="1" opacity="0.9607843137254902" d="M 385.5 76 L 386.5 78 L 385.5 76 Z " /><path fill="rgb(96,78,78)" stroke="rgb(96,78,78)" stroke-width="1" opacity="0.9607843137254902" d="M 370.5 80 L 371 82.5 L 370 82.5 L 370.5 80 Z " /><path fill="rgb(96,78,78)" stroke="rgb(96,78,78)" stroke-width="1" opacity="0.9607843137254902" d="M 387.5 80 L 388 83.5 L 387 83.5 L 387.5 80 Z " /><path fill="rgb(96,78,78)" stroke="rgb(96,78,78)" stroke-width="1" opacity="0.9607843137254902" d="M 410.5 80 L 407.5 84 L 410.5 80 Z " /><path fill="rgb(96,78,78)" stroke="rgb(96,78,78)" stroke-width="1" opacity="0.9607843137254902" d="M 396.5 81 L 398.5 84 L 396.5 81 Z " /><path fill="rgb(96,78,78)" stroke="rgb(96,78,78)" stroke-width="1" opacity="0.9607843137254902" d="M 401.5 84 L 405 84.5 L 401.5 85 L 401.5 84 Z " /><path fill="rgb(96,78,78)" stroke="rgb(96,78,78)" stroke-width="1" opacity="0.9607843137254902" d="M 338.5 100 L 339 103.5 L 338 103.5 L 338.5 100 Z " /><path fill="rgb(96,78,78)" stroke="rgb(96,78,78)" stroke-width="1" opacity="0.9607843137254902" d="M 338.5 110 L 339 113.5 L 338 113.5 L 338.5 110 Z " /><path fill="rgb(96,78,78)" stroke="rgb(96,78,78)" stroke-width="1" opacity="0.9607843137254902" d="M 450.5 117 L 451 120.5 L 450 120.5 L 450.5 117 Z " /><path fill="rgb(96,78,78)" stroke="rgb(96,78,78)" stroke-width="1" opacity="0.9607843137254902" d="M 340.5 118 L 383.5 162 L 340.5 118 Z " /><path fill="rgb(96,78,78)" stroke="rgb(96,78,78)" stroke-width="1" opacity="0.9607843137254902" d="M 451.5 125 L 452 127.5 L 451 127.5 L 451.5 125 Z " /><path fill="rgb(96,78,78)" stroke="rgb(96,78,78)" stroke-width="1" opacity="0.9607843137254902" d="M 316.5 144 L 319 147.5 L 315 150.5 L 318 146.5 L 316.5 144 Z " /><path fill="rgb(96,78,78)" stroke="rgb(96,78,78)" stroke-width="1" opacity="0.9607843137254902" d="M 314.5 145 L 312.5 148 L 314.5 145 Z " /><path fill="rgb(96,78,78)" stroke="rgb(96,78,78)" stroke-width="1" opacity="0.9607843137254902" d="M 446.5 145 L 445.5 147 L 446.5 145 Z " /><path fill="rgb(96,78,78)" stroke="rgb(96,78,78)" stroke-width="1" opacity="0.9607843137254902" d="M 443.5 148 L 441.5 151 L 443.5 148 Z " /><path fill="rgb(96,78,78)" stroke="rgb(96,78,78)" stroke-width="1" opacity="0.9607843137254902" d="M 323.5 152 L 329 156.5 L 324.5 153 L 320.5 156 L 323.5 152 Z " /><path fill="rgb(96,78,78)" stroke="rgb(96,78,78)" stroke-width="1" opacity="0.9607843137254902" d="M 328.5 158 L 325.5 162 L 328.5 158 Z " /><path fill="rgb(96,78,78)" stroke="rgb(96,78,78)" stroke-width="1" opacity="0.9607843137254902" d="M 334.5 162 L 340 167.5 L 335.5 172 L 339 167.5 L 334.5 162 Z " /><path fill="rgb(96,78,78)" stroke="rgb(96,78,78)" stroke-width="1" opacity="0.9607843137254902" d="M 388.5 163 L 393 163.5 L 388.5 164 L 388.5 163 Z " /><path fill="rgb(96,78,78)" stroke="rgb(96,78,78)" stroke-width="1" opacity="0.9607843137254902" d="M 344.5 172 L 350 178.5 L 346 181.5 L 349 177.5 L 344.5 173 L 340 176.5 L 344.5 172 Z " /><path fill="rgb(96,78,78)" stroke="rgb(96,78,78)" stroke-width="1" opacity="0.9607843137254902" d="M 281.5 177 L 285.5 180 L 289 177.5 L 284.5 181 L 281.5 177 Z " /><path fill="rgb(96,78,78)" stroke="rgb(96,78,78)" stroke-width="1" opacity="0.9607843137254902" d="M 293.5 182 L 291 185.5 L 295 190.5 L 290 186.5 L 293.5 182 Z " /><path fill="rgb(96,78,78)" stroke="rgb(96,78,78)" stroke-width="1" opacity="0.9607843137254902" d="M 355.5 183 L 357.5 186 L 355.5 183 Z " /><path fill="rgb(96,78,78)" stroke="rgb(96,78,78)" stroke-width="1" opacity="0.9607843137254902" d="M 299.5 187 L 296.5 191 L 299.5 187 Z " /><path fill="rgb(96,78,78)" stroke="rgb(96,78,78)" stroke-width="1" opacity="0.9607843137254902" d="M 300.5 196 L 305.5 201 L 310 197.5 L 305.5 202 L 300.5 196 Z " /><path fill="rgb(96,78,78)" stroke="rgb(96,78,78)" stroke-width="1" opacity="0.9607843137254902" d="M 258.5 198 L 263 201.5 L 259.5 199 L 255.5 202 L 258.5 198 Z " /><path fill="rgb(96,78,78)" stroke="rgb(96,78,78)" stroke-width="1" opacity="0.9607843137254902" d="M 314.5 202 L 311.5 206 L 314.5 202 Z " /><path fill="rgb(96,78,78)" stroke="rgb(96,78,78)" stroke-width="1" opacity="0.9607843137254902" d="M 255.5 203 L 259.5 206 L 263 203.5 L 258.5 207 L 255.5 203 Z " /><path fill="rgb(96,78,78)" stroke="rgb(96,78,78)" stroke-width="1" opacity="0.9607843137254902" d="M 311.5 207 L 316.5 211 L 320 208.5 L 315.5 212 L 311.5 207 Z " /><path fill="rgb(96,78,78)" stroke="rgb(96,78,78)" stroke-width="1" opacity="0.9607843137254902" d="M 267.5 208 L 265 211.5 L 269 216.5 L 264 212.5 L 267.5 208 Z " /><path fill="rgb(96,78,78)" stroke="rgb(96,78,78)" stroke-width="1" opacity="0.9607843137254902" d="M 269.5 208 L 274 213.5 L 270 216.5 L 273 212.5 L 269.5 208 Z " /><path fill="rgb(96,78,78)" stroke="rgb(96,78,78)" stroke-width="1" opacity="0.9607843137254902" d="M 328.5 216 L 324.5 221 L 321.5 217 L 324.5 220 L 328.5 216 Z " /><path fill="rgb(96,78,78)" stroke="rgb(96,78,78)" stroke-width="1" opacity="0.9607843137254902" d="M 279.5 218 L 284 223.5 L 280 226.5 L 283 222.5 L 279.5 218 Z " /><path fill="rgb(96,78,78)" stroke="rgb(96,78,78)" stroke-width="1" opacity="0.9607843137254902" d="M 275.5 223 L 278.5 227 L 275.5 223 Z " /><path fill="rgb(96,78,78)" stroke="rgb(96,78,78)" stroke-width="1" opacity="0.9607843137254902" d="M 231.5 224 L 230.5 226 L 231.5 224 Z " /><path fill="rgb(96,78,78)" stroke="rgb(96,78,78)" stroke-width="1" opacity="0.9607843137254902" d="M 233.5 224 L 236.5 228 L 233.5 224 Z " /><path fill="rgb(96,78,78)" stroke="rgb(96,78,78)" stroke-width="1" opacity="0.9607843137254902" d="M 288.5 228 L 294 232.5 L 289.5 229 L 285.5 232 L 288.5 228 Z " /><path fill="rgb(96,78,78)" stroke="rgb(96,78,78)" stroke-width="1" opacity="0.9607843137254902" d="M 236.5 229 L 233.5 233 L 236.5 229 Z " /><path fill="rgb(96,78,78)" stroke="rgb(96,78,78)" stroke-width="1" opacity="0.9607843137254902" d="M 285.5 233 L 290.5 237 L 294 234.5 L 289.5 238 L 285.5 233 Z " /><path fill="rgb(96,78,78)" stroke="rgb(96,78,78)" stroke-width="1" opacity="0.9607843137254902" d="M 241.5 234 L 238.5 238 L 241.5 234 Z " /><path fill="rgb(96,78,78)" stroke="rgb(96,78,78)" stroke-width="1" opacity="0.9607843137254902" d="M 243.5 234 L 248 239.5 L 244 242.5 L 247 238.5 L 243.5 234 Z " /><path fill="rgb(96,78,78)" stroke="rgb(96,78,78)" stroke-width="1" opacity="0.9607843137254902" d="M 300.5 239 L 302.5 242 L 300.5 239 Z " /><path fill="rgb(96,78,78)" stroke="rgb(96,78,78)" stroke-width="1" opacity="0.9607843137254902" d="M 295.5 243 L 298.5 247 L 295.5 243 Z " /><path fill="rgb(96,78,78)" stroke="rgb(96,78,78)" stroke-width="1" opacity="0.9607843137254902" d="M 253.5 244 L 258 249.5 L 254 252.5 L 257 248.5 L 253.5 244 Z " /><path fill="rgb(96,78,78)" stroke="rgb(96,78,78)" stroke-width="1" opacity="0.9607843137254902" d="M 130.5 245 L 137 245.5 L 130.5 246 L 130.5 245 Z " /><path fill="rgb(96,78,78)" stroke="rgb(96,78,78)" stroke-width="1" opacity="0.9607843137254902" d="M 121.5 249 L 118.5 253 L 121.5 249 Z " /><path fill="rgb(96,78,78)" stroke="rgb(96,78,78)" stroke-width="1" opacity="0.9607843137254902" d="M 206.5 249 L 212 254.5 L 207.5 259 L 211 254.5 L 206.5 249 Z " /><path fill="rgb(96,78,78)" stroke="rgb(96,78,78)" stroke-width="1" opacity="0.9607843137254902" d="M 200.5 250 L 202.5 251 L 204 250.5 L 200 253.5 L 201.5 251 L 200.5 250 Z " /><path fill="rgb(96,78,78)" stroke="rgb(96,78,78)" stroke-width="1" opacity="0.9607843137254902" d="M 160.5 251 L 163 251.5 L 160.5 252 L 160.5 251 Z " /><path fill="rgb(96,78,78)" stroke="rgb(96,78,78)" stroke-width="1" opacity="0.9607843137254902" d="M 194.5 251 L 197 251.5 L 194.5 252 L 194.5 251 Z " /><path fill="rgb(96,78,78)" stroke="rgb(96,78,78)" stroke-width="1" opacity="0.9607843137254902" d="M 169.5 252 L 188 252.5 L 169.5 253 L 169.5 252 Z " /><path fill="rgb(96,78,78)" stroke="rgb(96,78,78)" stroke-width="1" opacity="0.9607843137254902" d="M 262.5 254 L 268 258.5 L 263.5 255 L 259.5 258 L 262.5 254 Z " /><path fill="rgb(96,78,78)" stroke="rgb(96,78,78)" stroke-width="1" opacity="0.9607843137254902" d="M 215.5 260 L 212.5 264 L 215.5 260 Z " /><path fill="rgb(96,78,78)" stroke="rgb(96,78,78)" stroke-width="1" opacity="0.9607843137254902" d="M 217.5 260 L 222 265.5 L 218 268.5 L 221 264.5 L 217.5 260 Z " /><path fill="rgb(96,78,78)" stroke="rgb(96,78,78)" stroke-width="1" opacity="0.9607843137254902" d="M 267.5 260 L 264.5 264 L 267.5 260 Z " /><path fill="rgb(96,78,78)" stroke="rgb(96,78,78)" stroke-width="1" opacity="0.9607843137254902" d="M 190.5 262 L 184.5 269 L 190.5 262 Z " /><path fill="rgb(96,78,78)" stroke="rgb(96,78,78)" stroke-width="1" opacity="0.9607843137254902" d="M 273.5 264 L 277.5 269 L 273.5 264 Z " /><path fill="rgb(96,78,78)" stroke="rgb(96,78,78)" stroke-width="1" opacity="0.9607843137254902" d="M 107.5 269 L 106.5 271 L 107.5 269 Z " /><path fill="rgb(96,78,78)" stroke="rgb(96,78,78)" stroke-width="1" opacity="0.9607843137254902" d="M 227.5 270 L 232 275.5 L 228 278.5 L 231 274.5 L 227.5 270 Z " /><path fill="rgb(96,78,78)" stroke="rgb(96,78,78)" stroke-width="1" opacity="0.9607843137254902" d="M 277.5 270 L 274.5 274 L 277.5 270 Z " /><path fill="rgb(96,78,78)" stroke="rgb(96,78,78)" stroke-width="1" opacity="0.9607843137254902" d="M 105.5 272 L 104.5 274 L 105.5 272 Z " /><path fill="rgb(96,78,78)" stroke="rgb(96,78,78)" stroke-width="1" opacity="0.9607843137254902" d="M 189.5 276 L 156.5 310 L 152.5 305 L 156.5 309 L 189.5 276 Z " /><path fill="rgb(96,78,78)" stroke="rgb(96,78,78)" stroke-width="1" opacity="0.9607843137254902" d="M 236.5 280 L 242 284.5 L 237.5 281 L 233.5 284 L 236.5 280 Z " /><path fill="rgb(96,78,78)" stroke="rgb(96,78,78)" stroke-width="1" opacity="0.9607843137254902" d="M 194.5 281 L 162.5 314 L 194.5 281 Z " /><path fill="rgb(96,78,78)" stroke="rgb(96,78,78)" stroke-width="1" opacity="0.9607843137254902" d="M 96.5 286 L 95.5 288 L 96.5 286 Z " /><path fill="rgb(96,78,78)" stroke="rgb(96,78,78)" stroke-width="1" opacity="0.9607843137254902" d="M 200.5 286 L 167.5 320 L 162 315.5 L 166.5 319 L 200.5 286 Z " /><path fill="rgb(96,78,78)" stroke="rgb(96,78,78)" stroke-width="1" opacity="0.9607843137254902" d="M 241.5 286 L 238.5 290 L 241.5 286 Z " /><path fill="rgb(96,78,78)" stroke="rgb(96,78,78)" stroke-width="1" opacity="0.9607843137254902" d="M 94.5 289 L 93.5 291 L 94.5 289 Z " /><path fill="rgb(96,78,78)" stroke="rgb(96,78,78)" stroke-width="1" opacity="0.9607843137254902" d="M 247.5 290 L 254 296.5 L 245.5 305 L 253 296.5 L 247.5 290 Z " /><path fill="rgb(96,78,78)" stroke="rgb(96,78,78)" stroke-width="1" opacity="0.9607843137254902" d="M 210.5 296 L 177.5 330 L 172 325.5 L 176.5 329 L 210.5 296 Z " /><path fill="rgb(96,78,78)" stroke="rgb(96,78,78)" stroke-width="1" opacity="0.9607843137254902" d="M 215.5 301 L 183 334.5 L 187 339.5 L 182 335.5 L 215.5 301 Z " /><path fill="rgb(96,78,78)" stroke="rgb(96,78,78)" stroke-width="1" opacity="0.9607843137254902" d="M 254.5 301 L 255 303.5 L 254 303.5 L 254.5 301 Z " /><path fill="rgb(96,78,78)" stroke="rgb(96,78,78)" stroke-width="1" opacity="0.9607843137254902" d="M 145.5 303 L 148 303.5 L 145.5 304 L 145.5 303 Z " /><path fill="rgb(96,78,78)" stroke="rgb(96,78,78)" stroke-width="1" opacity="0.9607843137254902" d="M 140.5 305 L 135.5 311 L 140.5 305 Z " /><path fill="rgb(96,78,78)" stroke="rgb(96,78,78)" stroke-width="1" opacity="0.9607843137254902" d="M 83.5 306 L 82.5 308 L 83.5 306 Z " /><path fill="rgb(96,78,78)" stroke="rgb(96,78,78)" stroke-width="1" opacity="0.9607843137254902" d="M 220.5 307 L 188.5 340 L 220.5 307 Z " /><path fill="rgb(96,78,78)" stroke="rgb(96,78,78)" stroke-width="1" opacity="0.9607843137254902" d="M 236.5 314 L 233.5 318 L 236.5 314 Z " /><path fill="rgb(96,78,78)" stroke="rgb(96,78,78)" stroke-width="1" opacity="0.9607843137254902" d="M 264.5 319 L 265.5 321 L 264.5 319 Z " /><path fill="rgb(96,78,78)" stroke="rgb(96,78,78)" stroke-width="1" opacity="0.9607843137254902" d="M 72.5 323 L 71.5 325 L 72.5 323 Z " /><path fill="rgb(96,78,78)" stroke="rgb(96,78,78)" stroke-width="1" opacity="0.9607843137254902" d="M 136.5 323 L 140 326.5 L 118.5 348 L 115 345.5 L 117.5 347 L 139 326.5 L 136.5 323 Z " /><path fill="rgb(96,78,78)" stroke="rgb(96,78,78)" stroke-width="1" opacity="0.9607843137254902" d="M 276.5 324 L 389 324.5 L 276.5 325 L 276.5 324 Z " /><path fill="rgb(96,78,78)" stroke="rgb(96,78,78)" stroke-width="1" opacity="0.9607843137254902" d="M 397.5 329 L 398.5 331 L 397.5 329 Z " /><path fill="rgb(96,78,78)" stroke="rgb(96,78,78)" stroke-width="1" opacity="0.9607843137254902" d="M 144.5 331 L 150 337.5 L 129 357.5 L 149 336.5 L 144.5 332 L 124 352.5 L 128 357.5 L 123 353.5 L 144.5 331 Z " /><path fill="rgb(96,78,78)" stroke="rgb(96,78,78)" stroke-width="1" opacity="0.9607843137254902" d="M 400.5 335 L 401 340.5 L 400 340.5 L 400.5 335 Z " /><path fill="rgb(96,78,78)" stroke="rgb(96,78,78)" stroke-width="1" opacity="0.9607843137254902" d="M 62.5 338 L 61.5 340 L 62.5 338 Z " /><path fill="rgb(96,78,78)" stroke="rgb(96,78,78)" stroke-width="1" opacity="0.9607843137254902" d="M 155.5 342 L 160 347.5 L 138.5 369 L 133 363.5 L 138.5 368 L 159 347.5 L 155.5 342 Z " /><path fill="rgb(96,78,78)" stroke="rgb(96,78,78)" stroke-width="1" opacity="0.9607843137254902" d="M 102.5 343 L 96.5 350 L 102.5 343 Z " /><path fill="rgb(96,78,78)" stroke="rgb(96,78,78)" stroke-width="1" opacity="0.9607843137254902" d="M 55.5 345 L 54.5 347 L 55.5 345 Z " /><path fill="rgb(96,78,78)" stroke="rgb(96,78,78)" stroke-width="1" opacity="0.9607843137254902" d="M 192.5 345 L 196.5 350 L 192.5 345 Z " /><path fill="rgb(96,78,78)" stroke="rgb(96,78,78)" stroke-width="1" opacity="0.9607843137254902" d="M 397.5 346 L 396.5 348 L 397.5 346 Z " /><path fill="rgb(96,78,78)" stroke="rgb(96,78,78)" stroke-width="1" opacity="0.9607843137254902" d="M 393.5 349 L 392.5 351 L 393.5 349 Z " /><path fill="rgb(96,78,78)" stroke="rgb(96,78,78)" stroke-width="1" opacity="0.9607843137254902" d="M 390.5 351 L 389.5 353 L 390.5 351 Z " /><path fill="rgb(96,78,78)" stroke="rgb(96,78,78)" stroke-width="1" opacity="0.9607843137254902" d="M 164.5 352 L 171 357.5 L 148.5 379 L 143 373.5 L 164.5 352 Z M 165 353 L 144 374 L 149 378 L 170 358 L 165 353 Z " /><path fill="rgb(96,78,78)" stroke="rgb(96,78,78)" stroke-width="1" opacity="0.9607843137254902" d="M 387.5 353 L 386.5 355 L 387.5 353 Z " /><path fill="rgb(96,78,78)" stroke="rgb(96,78,78)" stroke-width="1" opacity="0.9607843137254902" d="M 384.5 355 L 383.5 357 L 384.5 355 Z " /><path fill="rgb(96,78,78)" stroke="rgb(96,78,78)" stroke-width="1" opacity="0.9607843137254902" d="M 22.5 360 L 24 363.5 L 23 363.5 L 22.5 360 Z " /><path fill="rgb(96,78,78)" stroke="rgb(96,78,78)" stroke-width="1" opacity="0.9607843137254902" d="M 96.5 360 L 101 365.5 L 80.5 385 L 69.5 373 L 81.5 384 L 100 364.5 L 96.5 360 Z " /><path fill="rgb(96,78,78)" stroke="rgb(96,78,78)" stroke-width="1" opacity="0.9607843137254902" d="M 196.5 361 L 192.5 366 L 196.5 361 Z " /><path fill="rgb(96,78,78)" stroke="rgb(96,78,78)" stroke-width="1" opacity="0.9607843137254902" d="M 175.5 362 L 177.5 365 L 175.5 362 Z " /><path fill="rgb(96,78,78)" stroke="rgb(96,78,78)" stroke-width="1" opacity="0.9607843137254902" d="M 24.5 365 L 30 375.5 L 28 374.5 L 24 366.5 L 24.5 365 Z " /><path fill="rgb(96,78,78)" stroke="rgb(96,78,78)" stroke-width="1" opacity="0.9607843137254902" d="M 105.5 370 L 111 374.5 L 106.5 371 L 87 389.5 L 91 394.5 L 86 390.5 L 105.5 370 Z " /><path fill="rgb(96,78,78)" stroke="rgb(96,78,78)" stroke-width="1" opacity="0.9607843137254902" d="M 110.5 376 L 92.5 395 L 110.5 376 Z " /><path fill="rgb(96,78,78)" stroke="rgb(96,78,78)" stroke-width="1" opacity="0.9607843137254902" d="M 30.5 377 L 38 389.5 L 36 388.5 L 30.5 377 Z " /><path fill="rgb(96,78,78)" stroke="rgb(96,78,78)" stroke-width="1" opacity="0.9607843137254902" d="M 116.5 380 L 122 385.5 L 101.5 406 L 96.5 400 L 101.5 405 L 121 385.5 L 116.5 380 Z " /><path fill="rgb(96,78,78)" stroke="rgb(96,78,78)" stroke-width="1" opacity="0.9607843137254902" d="M 343.5 382 L 342.5 384 L 343.5 382 Z " /><path fill="rgb(96,78,78)" stroke="rgb(96,78,78)" stroke-width="1" opacity="0.9607843137254902" d="M 154.5 384 L 156.5 387 L 154.5 384 Z " /><path fill="rgb(96,78,78)" stroke="rgb(96,78,78)" stroke-width="1" opacity="0.9607843137254902" d="M 340.5 384 L 339.5 386 L 340.5 384 Z " /><path fill="rgb(96,78,78)" stroke="rgb(96,78,78)" stroke-width="1" opacity="0.9607843137254902" d="M 337.5 386 L 336.5 388 L 337.5 386 Z " /><path fill="rgb(96,78,78)" stroke="rgb(96,78,78)" stroke-width="1" opacity="0.9607843137254902" d="M 334.5 388 L 333.5 390 L 334.5 388 Z " /><path fill="rgb(96,78,78)" stroke="rgb(96,78,78)" stroke-width="1" opacity="0.9607843137254902" d="M 331.5 390 L 330.5 392 L 331.5 390 Z " /><path fill="rgb(96,78,78)" stroke="rgb(96,78,78)" stroke-width="1" opacity="0.9607843137254902" d="M 125.5 391 L 107 410.5 L 111.5 415 L 131 396.5 L 127 391.5 L 132 395.5 L 112.5 416 L 106 410.5 L 125.5 391 Z " /><path fill="rgb(96,78,78)" stroke="rgb(96,78,78)" stroke-width="1" opacity="0.9607843137254902" d="M 159.5 391 L 160 396.5 L 159 396.5 L 159.5 391 Z " /><path fill="rgb(96,78,78)" stroke="rgb(96,78,78)" stroke-width="1" opacity="0.9607843137254902" d="M 328.5 392 L 327.5 394 L 328.5 392 Z " /><path fill="rgb(96,78,78)" stroke="rgb(96,78,78)" stroke-width="1" opacity="0.9607843137254902" d="M 157.5 400 L 153.5 405 L 157.5 400 Z " /><path fill="rgb(96,78,78)" stroke="rgb(96,78,78)" stroke-width="1" opacity="0.9607843137254902" d="M 137.5 401 L 140.5 405 L 137.5 401 Z " /><path fill="rgb(96,78,78)" stroke="rgb(96,78,78)" stroke-width="1" opacity="0.9607843137254902" d="M 290.5 417 L 289.5 419 L 290.5 417 Z " /><path fill="rgb(96,78,78)" stroke="rgb(96,78,78)" stroke-width="1" opacity="0.9607843137254902" d="M 287.5 419 L 286.5 421 L 287.5 419 Z " /><path fill="rgb(96,78,78)" stroke="rgb(96,78,78)" stroke-width="1" opacity="0.9607843137254902" d="M 117.5 421 L 128.5 433 L 117.5 421 Z " /><path fill="rgb(96,78,78)" stroke="rgb(96,78,78)" stroke-width="1" opacity="0.9607843137254902" d="M 284.5 421 L 283.5 423 L 284.5 421 Z " /><path fill="rgb(96,78,78)" stroke="rgb(96,78,78)" stroke-width="1" opacity="0.9607843137254902" d="M 281.5 423 L 280.5 425 L 281.5 423 Z " /><path fill="rgb(96,78,78)" stroke="rgb(96,78,78)" stroke-width="1" opacity="0.9607843137254902" d="M 278.5 425 L 277.5 427 L 278.5 425 Z " /><path fill="rgb(96,78,78)" stroke="rgb(96,78,78)" stroke-width="1" opacity="0.9607843137254902" d="M 129.5 446 L 128.5 448 L 129.5 446 Z " /><path fill="rgb(96,78,78)" stroke="rgb(96,78,78)" stroke-width="1" opacity="0.9607843137254902" d="M 234.5 454 L 233.5 456 L 234.5 454 Z " /><path fill="rgb(96,78,78)" stroke="rgb(96,78,78)" stroke-width="1" opacity="0.9607843137254902" d="M 231.5 456 L 230.5 458 L 231.5 456 Z " /><path fill="rgb(96,78,78)" stroke="rgb(96,78,78)" stroke-width="1" opacity="0.9607843137254902" d="M 228.5 458 L 227.5 460 L 228.5 458 Z " /><path fill="rgb(96,78,78)" stroke="rgb(96,78,78)" stroke-width="1" opacity="0.9607843137254902" d="M 225.5 460 L 224.5 462 L 225.5 460 Z " /><path fill="rgb(96,78,78)" stroke="rgb(96,78,78)" stroke-width="1" opacity="0.9607843137254902" d="M 150.5 462 L 151 464.5 L 150 464.5 L 150.5 462 Z " /><path fill="rgb(96,78,78)" stroke="rgb(96,78,78)" stroke-width="1" opacity="0.9607843137254902" d="M 222.5 462 L 221.5 464 L 222.5 462 Z " /><path fill="rgb(96,78,78)" stroke="rgb(96,78,78)" stroke-width="1" opacity="0.9607843137254902" d="M 178.5 463 L 179 467.5 L 178 467.5 L 178.5 463 Z " /><path fill="rgb(96,78,78)" stroke="rgb(96,78,78)" stroke-width="1" opacity="0.9607843137254902" d="M 219.5 464 L 218.5 466 L 219.5 464 Z " /><path fill="rgb(96,78,78)" stroke="rgb(96,78,78)" stroke-width="1" opacity="0.9607843137254902" d="M 110.5 466 Q 127 478.5 147 487.5 L 145.5 488 L 118.5 473 Q 112.4 470.3 110.5 466 Z " /><path fill="rgb(96,78,78)" stroke="rgb(96,78,78)" stroke-width="1" opacity="0.9607843137254902" d="M 175.5 474 L 172.5 478 L 175.5 474 Z " /><path fill="rgb(96,78,78)" stroke="rgb(96,78,78)" stroke-width="1" opacity="0.9607843137254902" d="M 148.5 488 L 166 495.5 L 164.5 496 L 148.5 489 L 148.5 488 Z " /><path fill="rgb(96,78,78)" stroke="rgb(96,78,78)" stroke-width="1" opacity="0.9607843137254902" d="M 167.5 496 L 178 499.5 L 175.5 500 L 167.5 497 L 167.5 496 Z " /><path fill="rgb(96,78,78)" stroke="rgb(96,78,78)" stroke-width="1" opacity="0.9607843137254902" d="M 179.5 500 L 181.5 501 L 183 500.5 Q 181.8 503.3 180.5 501 L 179.5 500 Z " /><path fill="rgb(0,0,0)" stroke="rgb(0,0,0)" stroke-width="1" opacity="0" d="M 0 0 L 233 0.5 L 205.5 4 L 181.5 10 Q 155.5 18 133.5 30 Q 92.6 52.6 63 86.5 Q 36.1 116.6 19 156.5 Q 10.4 176.9 5 200.5 L 0.5 233 L 0 0 Z " /><path fill="rgb(0,0,0)" stroke="rgb(0,0,0)" stroke-width="1" opacity="0" d="M 279.5 0 L 511.5 0 L 512 0.5 L 512 58.5 L 511 58.5 Q 509.4 45.6 500.5 40 L 491.5 36 L 481.5 36 L 479 37 L 476 22.5 L 472.5 19 L 464.5 18 L 460 21.5 L 459 30.5 L 462 40.5 L 455 42 L 452 28.5 L 449.5 25 Q 447.2 22.3 441.5 23 L 436 26.5 L 435 35.5 L 438 45.5 L 431 48 L 428 34.5 L 423.5 29 Q 414 27 412 32.5 L 411 41.5 L 414 51.5 L 411.5 52 L 405 46.5 Q 405.3 39.2 401.5 36 Q 399.2 33.3 393.5 34 Q 392.1 36.6 387.5 36 L 378.5 30 L 345.5 15 L 311.5 5 L 295.5 2 L 288.5 2 L 287.5 1 L 279.5 1 L 279.5 0 Z " /><path fill="rgb(0,0,0)" stroke="rgb(0,0,0)" stroke-width="1" opacity="0" d="M 511.5 72 L 512 232.5 L 511 232.5 L 511 224.5 L 510 223.5 L 507 200.5 L 497 166.5 Q 483 129 460 100.5 Q 463.8 96.3 470.5 95 L 497.5 89 L 508 80.5 L 511.5 72 Z " /><path fill="rgb(0,0,0)" stroke="rgb(0,0,0)" stroke-width="1" opacity="0" d="M 0.5 279 L 4 306.5 L 10 330.5 L 19 355.5 L 30 378.5 Q 53 420 87.5 450 Q 117.5 476 156.5 493 Q 176.9 501.6 200.5 507 L 234 511.5 L 0 512 L 0.5 279 Z " /><path fill="rgb(0,0,0)" stroke="rgb(0,0,0)" stroke-width="1" opacity="0" d="M 511.5 279 L 512 512 L 279 511.5 L 301.5 509 L 330.5 502 Q 356.5 494 378.5 482 Q 419.4 459.4 449 425.5 Q 475.9 395.4 493 355.5 Q 501.6 335.1 507 311.5 L 511.5 279 Z " /><path fill="rgb(217,73,83)" stroke="rgb(217,73,83)" stroke-width="1" opacity="0.9921568627450981" d="M 233.5 0 L 239 0.5 L 233.5 1 L 233.5 0 Z " /><path fill="rgb(217,73,83)" stroke="rgb(217,73,83)" stroke-width="1" opacity="0.9921568627450981" d="M 276.5 0 L 279 0.5 L 276.5 1 L 276.5 0 Z " /><path fill="rgb(217,73,83)" stroke="rgb(217,73,83)" stroke-width="1" opacity="0.9921568627450981" d="M 224.5 1 L 229 1.5 L 224.5 2 L 224.5 1 Z " /><path fill="rgb(217,73,83)" stroke="rgb(217,73,83)" stroke-width="1" opacity="0.9921568627450981" d="M 281.5 1 L 286 1.5 L 281.5 2 L 281.5 1 Z " /><path fill="rgb(217,73,83)" stroke="rgb(217,73,83)" stroke-width="1" opacity="0.9921568627450981" d="M 217.5 2 L 220 2.5 L 217.5 3 L 217.5 2 Z " /><path fill="rgb(217,73,83)" stroke="rgb(217,73,83)" stroke-width="1" opacity="0.9921568627450981" d="M 205.5 4 L 208 4.5 L 205.5 5 L 205.5 4 Z " /><path fill="rgb(217,73,83)" stroke="rgb(217,73,83)" stroke-width="1" opacity="0.9921568627450981" d="M 313.5 6 L 316 6.5 L 313.5 7 L 313.5 6 Z " /><path fill="rgb(217,73,83)" stroke="rgb(217,73,83)" stroke-width="1" opacity="0.9921568627450981" d="M 192.5 7 L 195 7.5 L 192.5 8 L 192.5 7 Z " /><path fill="rgb(217,73,83)" stroke="rgb(217,73,83)" stroke-width="1" opacity="0.9921568627450981" d="M 185.5 9 L 187 9.5 L 181.5 11 L 181.5 10 L 185.5 9 Z " /><path fill="rgb(217,73,83)" stroke="rgb(217,73,83)" stroke-width="1" opacity="0.9921568627450981" d="M 326.5 9 L 332 11.5 L 330.5 11 Q 325.9 11.8 326.5 9 Z " /><path fill="rgb(217,73,83)" stroke="rgb(217,73,83)" stroke-width="1" opacity="0.9921568627450981" d="M 341.5 14 L 344 15.5 L 342.5 15 L 341.5 14 Z " /><path fill="rgb(217,73,83)" stroke="rgb(217,73,83)" stroke-width="1" opacity="0.9921568627450981" d="M 166.5 15 L 167 17 L 159.5 19 L 159.5 18 L 166.5 15 Z " /><path fill="rgb(217,73,83)" stroke="rgb(217,73,83)" stroke-width="1" opacity="0.9921568627450981" d="M 350.5 17 L 355 19.5 L 353.5 20 L 350.5 17 Z " /><path fill="rgb(217,73,83)" stroke="rgb(217,73,83)" stroke-width="1" opacity="0.9921568627450981" d="M 156.5 19 L 155.5 21 L 150.5 23 L 150.5 22 L 156.5 19 Z " /><path fill="rgb(217,73,83)" stroke="rgb(217,73,83)" stroke-width="1" opacity="0.9921568627450981" d="M 364.5 23 L 368 25.5 L 366.5 25 L 364.5 23 Z " /><path fill="rgb(217,73,83)" stroke="rgb(217,73,83)" stroke-width="1" opacity="0.9921568627450981" d="M 143.5 25 L 142.5 27 L 139.5 28 L 139.5 27 L 143.5 25 Z " /><path fill="rgb(217,73,83)" stroke="rgb(217,73,83)" stroke-width="1" opacity="0.9921568627450981" d="M 137.5 28 L 135.5 31 L 135 29 L 137.5 28 Z " /><path fill="rgb(217,73,83)" stroke="rgb(217,73,83)" stroke-width="1" opacity="0.9921568627450981" d="M 373.5 28 Q 375.8 27.3 375 29.5 L 373.5 28 Z " /><path fill="rgb(217,73,83)" stroke="rgb(217,73,83)" stroke-width="1" opacity="0.9921568627450981" d="M 133.5 30 L 132.5 32 L 133.5 30 Z " /><path fill="rgb(217,73,83)" stroke="rgb(217,73,83)" stroke-width="1" opacity="0.9921568627450981" d="M 381.5 32 L 384 33.5 L 382.5 34 L 381.5 32 Z " /><path fill="rgb(217,73,83)" stroke="rgb(217,73,83)" stroke-width="1" opacity="0.9921568627450981" d="M 126.5 34 L 124.5 37 L 123 36.5 L 126.5 34 Z " /><path fill="rgb(217,73,83)" stroke="rgb(217,73,83)" stroke-width="1" opacity="0.9921568627450981" d="M 121.5 37 L 119.5 40 L 121.5 37 Z " /><path fill="rgb(217,73,83)" stroke="rgb(217,73,83)" stroke-width="1" opacity="0.9921568627450981" d="M 117.5 40 L 116.5 42 L 111.5 45 L 112.5 43 L 117.5 40 Z " /><path fill="rgb(217,73,83)" stroke="rgb(217,73,83)" stroke-width="1" opacity="0.9921568627450981" d="M 105.5 48 L 107 48.5 L 101.5 52 L 102.5 50 L 105.5 48 Z " /><path fill="rgb(217,73,83)" stroke="rgb(217,73,83)" stroke-width="1" opacity="0.9921568627450981" d="M 409.5 50 L 411 52.5 L 410 52.5 L 409.5 50 Z " /><path fill="rgb(217,73,83)" stroke="rgb(217,73,83)" stroke-width="1" opacity="0.9921568627450981" d="M 97.5 54 L 98 56 L 95.5 57 L 97.5 54 Z " /><path fill="rgb(217,73,83)" stroke="rgb(217,73,83)" stroke-width="1" opacity="0.9921568627450981" d="M 93.5 57 L 93 58.5 Q 93.8 60.8 91.5 60 L 90 60.5 L 93.5 57 Z " /><path fill="rgb(217,73,83)" stroke="rgb(217,73,83)" stroke-width="1" opacity="0.9921568627450981" d="M 88.5 62 L 86.5 65 L 86 63 L 88.5 62 Z " /><path fill="rgb(217,73,83)" stroke="rgb(217,73,83)" stroke-width="1" opacity="0.9921568627450981" d="M 84.5 65 L 80.5 70 L 84.5 65 Z " /><path fill="rgb(217,73,83)" stroke="rgb(217,73,83)" stroke-width="1" opacity="0.9921568627450981" d="M 357.5 68 L 356.5 70 L 357.5 68 Z " /><path fill="rgb(217,73,83)" stroke="rgb(217,73,83)" stroke-width="1" opacity="0.9921568627450981" d="M 74.5 75 L 73.5 77 L 74.5 75 Z " /><path fill="rgb(217,73,83)" stroke="rgb(217,73,83)" stroke-width="1" opacity="0.9921568627450981" d="M 347.5 78 L 346.5 80 L 347.5 78 Z " /><path fill="rgb(217,73,83)" stroke="rgb(217,73,83)" stroke-width="1" opacity="0.9921568627450981" d="M 345.5 81 L 344.5 83 L 345.5 81 Z " /><path fill="rgb(217,73,83)" stroke="rgb(217,73,83)" stroke-width="1" opacity="0.9921568627450981" d="M 67.5 82 L 64 86.5 L 63.5 88 L 63 86.5 L 67.5 82 Z " /><path fill="rgb(217,73,83)" stroke="rgb(217,73,83)" stroke-width="1" opacity="0.9921568627450981" d="M 59.5 91 L 60 93 L 57.5 94 L 59.5 91 Z " /><path fill="rgb(217,73,83)" stroke="rgb(217,73,83)" stroke-width="1" opacity="0.9921568627450981" d="M 55.5 96 L 55 97.5 L 54.5 99 L 54 97.5 L 55.5 96 Z " /><path fill="rgb(217,73,83)" stroke="rgb(217,73,83)" stroke-width="1" opacity="0.9921568627450981" d="M 51.5 101 L 51 102.5 L 48.5 106 L 50 103.5 L 51.5 101 Z " /><path fill="rgb(217,73,83)" stroke="rgb(217,73,83)" stroke-width="1" opacity="0.9921568627450981" d="M 458.5 101 L 456.5 104 L 458.5 101 Z " /><path fill="rgb(217,73,83)" stroke="rgb(217,73,83)" stroke-width="1" opacity="0.9921568627450981" d="M 461.5 102 L 463 104.5 L 461 103.5 L 461.5 102 Z " /><path fill="rgb(217,73,83)" stroke="rgb(217,73,83)" stroke-width="1" opacity="0.9921568627450981" d="M 47.5 107 L 45.5 110 L 47.5 107 Z " /><path fill="rgb(217,73,83)" stroke="rgb(217,73,83)" stroke-width="1" opacity="0.9921568627450981" d="M 465.5 108 L 467 110.5 L 465 109.5 L 465.5 108 Z " /><path fill="rgb(217,73,83)" stroke="rgb(217,73,83)" stroke-width="1" opacity="0.9921568627450981" d="M 44.5 111 L 45 113 L 43 112.5 L 44.5 111 Z " /><path fill="rgb(217,73,83)" stroke="rgb(217,73,83)" stroke-width="1" opacity="0.9921568627450981" d="M 42.5 114 L 43 116 L 41 115.5 L 42.5 114 Z " /><path fill="rgb(217,73,83)" stroke="rgb(217,73,83)" stroke-width="1" opacity="0.9921568627450981" d="M 40.5 117 L 41 118.5 L 36.5 125 L 36 123.5 L 40.5 117 Z " /><path fill="rgb(217,73,83)" stroke="rgb(217,73,83)" stroke-width="1" opacity="0.9921568627450981" d="M 471.5 117 L 473 119.5 L 471 118.5 L 471.5 117 Z " /><path fill="rgb(217,73,83)" stroke="rgb(217,73,83)" stroke-width="1" opacity="0.9921568627450981" d="M 476.5 125 L 478 127.5 L 477 127.5 L 476.5 125 Z " /><path fill="rgb(217,73,83)" stroke="rgb(217,73,83)" stroke-width="1" opacity="0.9921568627450981" d="M 478.5 129 L 482 133.5 L 479 131.5 L 478.5 129 Z " /><path fill="rgb(217,73,83)" stroke="rgb(217,73,83)" stroke-width="1" opacity="0.9921568627450981" d="M 30.5 134 L 31 135.5 L 28 137.5 L 30.5 134 Z " /><path fill="rgb(217,73,83)" stroke="rgb(217,73,83)" stroke-width="1" opacity="0.9921568627450981" d="M 27.5 139 L 28 140.5 L 26 141.5 L 27.5 139 Z " /><path fill="rgb(217,73,83)" stroke="rgb(217,73,83)" stroke-width="1" opacity="0.9921568627450981" d="M 448.5 143 L 447.5 145 L 448.5 143 Z " /><path fill="rgb(217,73,83)" stroke="rgb(217,73,83)" stroke-width="1" opacity="0.9921568627450981" d="M 23 147 L 25 147.5 L 23 148.5 L 23 147 Z " /><path fill="rgb(217,73,83)" stroke="rgb(217,73,83)" stroke-width="1" opacity="0.9921568627450981" d="M 445.5 147 L 444.5 149 L 445.5 147 Z " /><path fill="rgb(217,73,83)" stroke="rgb(217,73,83)" stroke-width="1" opacity="0.9921568627450981" d="M 490.5 152 L 492 154.5 L 490 153.5 L 490.5 152 Z " /><path fill="rgb(217,73,83)" stroke="rgb(217,73,83)" stroke-width="1" opacity="0.9921568627450981" d="M 21.5 153 L 21 154.5 L 19.5 158 L 19 156.5 L 21.5 153 Z " /><path fill="rgb(217,73,83)" stroke="rgb(217,73,83)" stroke-width="1" opacity="0.9921568627450981" d="M 18.5 159 L 19 160.5 L 17.5 163 L 17 161.5 L 18.5 159 Z " /><path fill="rgb(217,73,83)" stroke="rgb(217,73,83)" stroke-width="1" opacity="0.9921568627450981" d="M 496.5 167 L 498 170.5 L 497 170.5 L 496.5 167 Z " /><path fill="rgb(217,73,83)" stroke="rgb(217,73,83)" stroke-width="1" opacity="0.9921568627450981" d="M 15.5 168 L 15 169.5 L 13.5 173 L 14 171.5 L 15.5 168 Z " /><path fill="rgb(217,73,83)" stroke="rgb(217,73,83)" stroke-width="1" opacity="0.9921568627450981" d="M 11.5 180 L 11 181.5 L 9.5 187 L 9 185.5 L 11.5 180 Z " /><path fill="rgb(217,73,83)" stroke="rgb(217,73,83)" stroke-width="1" opacity="0.9921568627450981" d="M 501.5 181 L 502 183.5 L 501 183.5 L 501.5 181 Z " /><path fill="rgb(217,73,83)" stroke="rgb(217,73,83)" stroke-width="1" opacity="0.9921568627450981" d="M 7.5 192 L 8 195.5 L 6.5 198 L 6 196.5 L 7.5 192 Z " /><path fill="rgb(217,73,83)" stroke="rgb(217,73,83)" stroke-width="1" opacity="0.9921568627450981" d="M 5.5 201 L 6 203.5 L 5 203.5 L 5.5 201 Z " /><path fill="rgb(217,73,83)" stroke="rgb(217,73,83)" stroke-width="1" opacity="0.9921568627450981" d="M 506.5 201 L 507 203.5 L 506 203.5 L 506.5 201 Z " /><path fill="rgb(217,73,83)" stroke="rgb(217,73,83)" stroke-width="1" opacity="0.9921568627450981" d="M 1.5 229 L 2 231.5 L 1 231.5 L 1.5 229 Z " /><path fill="rgb(217,73,83)" stroke="rgb(217,73,83)" stroke-width="1" opacity="0.9921568627450981" d="M 0.5 233 L 1 237.5 L 0 237.5 L 0.5 233 Z " /><path fill="rgb(217,73,83)" stroke="rgb(217,73,83)" stroke-width="1" opacity="0.9921568627450981" d="M 511.5 235 L 512 238.5 L 511 238.5 L 511.5 235 Z " /><path fill="rgb(217,73,83)" stroke="rgb(217,73,83)" stroke-width="1" opacity="0.9921568627450981" d="M 511.5 246 L 512 248.5 L 511 248.5 L 511.5 246 Z " /><path fill="rgb(217,73,83)" stroke="rgb(217,73,83)" stroke-width="1" opacity="0.9921568627450981" d="M 123.5 247 L 122.5 249 L 123.5 247 Z " /><path fill="rgb(217,73,83)" stroke="rgb(217,73,83)" stroke-width="1" opacity="0.9921568627450981" d="M 163.5 251 L 167 251.5 L 163.5 252 L 163.5 251 Z " /><path fill="rgb(217,73,83)" stroke="rgb(217,73,83)" stroke-width="1" opacity="0.9921568627450981" d="M 191.5 251 L 194 251.5 L 191.5 252 L 191.5 251 Z " /><path fill="rgb(217,73,83)" stroke="rgb(217,73,83)" stroke-width="1" opacity="0.9921568627450981" d="M 117.5 253 L 116.5 255 L 117.5 253 Z " /><path fill="rgb(217,73,83)" stroke="rgb(217,73,83)" stroke-width="1" opacity="0.9921568627450981" d="M 115.5 256 L 114.5 258 L 115.5 256 Z " /><path fill="rgb(217,73,83)" stroke="rgb(217,73,83)" stroke-width="1" opacity="0.9921568627450981" d="M 113.5 259 L 112.5 261 L 113.5 259 Z " /><path fill="rgb(217,73,83)" stroke="rgb(217,73,83)" stroke-width="1" opacity="0.9921568627450981" d="M 511.5 263 L 512 265.5 L 511 265.5 L 511.5 263 Z " /><path fill="rgb(217,73,83)" stroke="rgb(217,73,83)" stroke-width="1" opacity="0.9921568627450981" d="M 0.5 271 L 1 278.5 L 0 278.5 L 0.5 271 Z " /><path fill="rgb(217,73,83)" stroke="rgb(217,73,83)" stroke-width="1" opacity="0.9921568627450981" d="M 511.5 275 L 512 277.5 L 511 277.5 L 511.5 275 Z " /><path fill="rgb(217,73,83)" stroke="rgb(217,73,83)" stroke-width="1" opacity="0.9921568627450981" d="M 102.5 276 L 101.5 278 L 102.5 276 Z " /><path fill="rgb(217,73,83)" stroke="rgb(217,73,83)" stroke-width="1" opacity="0.9921568627450981" d="M 510.5 285 L 511 287.5 L 510 287.5 L 510.5 285 Z " /><path fill="rgb(217,73,83)" stroke="rgb(217,73,83)" stroke-width="1" opacity="0.9921568627450981" d="M 91.5 293 L 90.5 295 L 91.5 293 Z " /><path fill="rgb(217,73,83)" stroke="rgb(217,73,83)" stroke-width="1" opacity="0.9921568627450981" d="M 254.5 297 L 255 300.5 L 254 300.5 L 254.5 297 Z " /><path fill="rgb(217,73,83)" stroke="rgb(217,73,83)" stroke-width="1" opacity="0.9921568627450981" d="M 3.5 298 L 4 300.5 L 3 300.5 L 3.5 298 Z " /><path fill="rgb(217,73,83)" stroke="rgb(217,73,83)" stroke-width="1" opacity="0.9921568627450981" d="M 507.5 303 L 508 306.5 L 507 306.5 L 507.5 303 Z " /><path fill="rgb(217,73,83)" stroke="rgb(217,73,83)" stroke-width="1" opacity="0.9921568627450981" d="M 80.5 310 L 79.5 312 L 80.5 310 Z " /><path fill="rgb(217,73,83)" stroke="rgb(217,73,83)" stroke-width="1" opacity="0.9921568627450981" d="M 505.5 312 L 506 315.5 L 505 315.5 L 505.5 312 Z " /><path fill="rgb(217,73,83)" stroke="rgb(217,73,83)" stroke-width="1" opacity="0.9921568627450981" d="M 259.5 314 L 263.5 319 L 259.5 314 Z " /><path fill="rgb(217,73,83)" stroke="rgb(217,73,83)" stroke-width="1" opacity="0.9921568627450981" d="M 504.5 317 L 505 319.5 L 504 319.5 L 504.5 317 Z " /><path fill="rgb(217,73,83)" stroke="rgb(217,73,83)" stroke-width="1" opacity="0.9921568627450981" d="M 503.5 321 L 504 323.5 L 503 323.5 L 503.5 321 Z " /><path fill="rgb(217,73,83)" stroke="rgb(217,73,83)" stroke-width="1" opacity="0.9921568627450981" d="M 502.5 325 L 503 326.5 L 500.5 333 L 500 331.5 L 502.5 325 Z " /><path fill="rgb(217,73,83)" stroke="rgb(217,73,83)" stroke-width="1" opacity="0.9921568627450981" d="M 9.5 326 L 11 328.5 L 10 328.5 L 9.5 326 Z " /><path fill="rgb(217,73,83)" stroke="rgb(217,73,83)" stroke-width="1" opacity="0.9921568627450981" d="M 69.5 327 L 68.5 329 L 69.5 327 Z " /><path fill="rgb(217,73,83)" stroke="rgb(217,73,83)" stroke-width="1" opacity="0.9921568627450981" d="M 396.5 327 L 398.5 330 L 396.5 327 Z " /><path fill="rgb(217,73,83)" stroke="rgb(217,73,83)" stroke-width="1" opacity="0.9921568627450981" d="M 67.5 330 L 66.5 332 L 67.5 330 Z " /><path fill="rgb(217,73,83)" stroke="rgb(217,73,83)" stroke-width="1" opacity="0.9921568627450981" d="M 63.5 336 L 62.5 338 L 63.5 336 Z " /><path fill="rgb(217,73,83)" stroke="rgb(217,73,83)" stroke-width="1" opacity="0.9921568627450981" d="M 498.5 338 L 499 339.5 L 496.5 344 L 497 342.5 L 498.5 338 Z " /><path fill="rgb(217,73,83)" stroke="rgb(217,73,83)" stroke-width="1" opacity="0.9921568627450981" d="M 60.5 340 L 56.5 345 L 60.5 340 Z " /><path fill="rgb(217,73,83)" stroke="rgb(217,73,83)" stroke-width="1" opacity="0.9921568627450981" d="M 14.5 341 L 17 345.5 L 15 344.5 L 14.5 341 Z " /><path fill="rgb(217,73,83)" stroke="rgb(217,73,83)" stroke-width="1" opacity="0.9921568627450981" d="M 399.5 344 L 398.5 346 L 399.5 344 Z " /><path fill="rgb(217,73,83)" stroke="rgb(217,73,83)" stroke-width="1" opacity="0.9921568627450981" d="M 53.5 346 L 52.5 348 L 53.5 346 Z " /><path fill="rgb(217,73,83)" stroke="rgb(217,73,83)" stroke-width="1" opacity="0.9921568627450981" d="M 395.5 348 L 394.5 350 L 395.5 348 Z " /><path fill="rgb(217,73,83)" stroke="rgb(217,73,83)" stroke-width="1" opacity="0.9921568627450981" d="M 494.5 349 L 495 350.5 L 492.5 356 L 492 353.5 L 494.5 349 Z " /><path fill="rgb(217,73,83)" stroke="rgb(217,73,83)" stroke-width="1" opacity="0.9921568627450981" d="M 380.5 358 L 379.5 360 L 380.5 358 Z " /><path fill="rgb(217,73,83)" stroke="rgb(217,73,83)" stroke-width="1" opacity="0.9921568627450981" d="M 377.5 360 L 376.5 362 L 377.5 360 Z " /><path fill="rgb(217,73,83)" stroke="rgb(217,73,83)" stroke-width="1" opacity="0.9921568627450981" d="M 489.5 360 L 490 361.5 L 488.5 365 L 488 362.5 L 489.5 360 Z " /><path fill="rgb(217,73,83)" stroke="rgb(217,73,83)" stroke-width="1" opacity="0.9921568627450981" d="M 374.5 362 L 373.5 364 L 374.5 362 Z " /><path fill="rgb(217,73,83)" stroke="rgb(217,73,83)" stroke-width="1" opacity="0.9921568627450981" d="M 371.5 364 L 370.5 366 L 371.5 364 Z " /><path fill="rgb(217,73,83)" stroke="rgb(217,73,83)" stroke-width="1" opacity="0.9921568627450981" d="M 368.5 366 L 367.5 368 L 368.5 366 Z " /><path fill="rgb(217,73,83)" stroke="rgb(217,73,83)" stroke-width="1" opacity="0.9921568627450981" d="M 486 366 L 488 366.5 L 486.5 369 L 486 366 Z " /><path fill="rgb(217,73,83)" stroke="rgb(217,73,83)" stroke-width="1" opacity="0.9921568627450981" d="M 365.5 368 L 364.5 370 L 365.5 368 Z " /><path fill="rgb(217,73,83)" stroke="rgb(217,73,83)" stroke-width="1" opacity="0.9921568627450981" d="M 362.5 370 L 361.5 372 L 362.5 370 Z " /><path fill="rgb(217,73,83)" stroke="rgb(217,73,83)" stroke-width="1" opacity="0.9921568627450981" d="M 484.5 372 L 484 373.5 L 481.5 378 L 481 376.5 L 484.5 372 Z " /><path fill="rgb(217,73,83)" stroke="rgb(217,73,83)" stroke-width="1" opacity="0.9921568627450981" d="M 480.5 379 L 480 380.5 L 479.5 382 L 479 380.5 L 480.5 379 Z " /><path fill="rgb(217,73,83)" stroke="rgb(217,73,83)" stroke-width="1" opacity="0.9921568627450981" d="M 476.5 386 L 476 387.5 L 474.5 390 L 475 388.5 L 476.5 386 Z " /><path fill="rgb(217,73,83)" stroke="rgb(217,73,83)" stroke-width="1" opacity="0.9921568627450981" d="M 39.5 393 L 40.5 395 L 39.5 393 Z " /><path fill="rgb(217,73,83)" stroke="rgb(217,73,83)" stroke-width="1" opacity="0.9921568627450981" d="M 471 393 L 473 393.5 L 471 394.5 L 471 393 Z " /><path fill="rgb(217,73,83)" stroke="rgb(217,73,83)" stroke-width="1" opacity="0.9921568627450981" d="M 324.5 395 L 323.5 397 L 324.5 395 Z " /><path fill="rgb(217,73,83)" stroke="rgb(217,73,83)" stroke-width="1" opacity="0.9921568627450981" d="M 41.5 396 L 42.5 398 L 41.5 396 Z " /><path fill="rgb(217,73,83)" stroke="rgb(217,73,83)" stroke-width="1" opacity="0.9921568627450981" d="M 469 396 L 471 396.5 L 469 397.5 L 469 396 Z " /><path fill="rgb(217,73,83)" stroke="rgb(217,73,83)" stroke-width="1" opacity="0.9921568627450981" d="M 321.5 397 L 320.5 399 L 321.5 397 Z " /><path fill="rgb(217,73,83)" stroke="rgb(217,73,83)" stroke-width="1" opacity="0.9921568627450981" d="M 43.5 399 L 44.5 401 L 43.5 399 Z " /><path fill="rgb(217,73,83)" stroke="rgb(217,73,83)" stroke-width="1" opacity="0.9921568627450981" d="M 318.5 399 L 317.5 401 L 318.5 399 Z " /><path fill="rgb(217,73,83)" stroke="rgb(217,73,83)" stroke-width="1" opacity="0.9921568627450981" d="M 315.5 401 L 314.5 403 L 315.5 401 Z " /><path fill="rgb(217,73,83)" stroke="rgb(217,73,83)" stroke-width="1" opacity="0.9921568627450981" d="M 45.5 402 L 46.5 404 L 45.5 402 Z " /><path fill="rgb(217,73,83)" stroke="rgb(217,73,83)" stroke-width="1" opacity="0.9921568627450981" d="M 312.5 403 L 311.5 405 L 312.5 403 Z " /><path fill="rgb(217,73,83)" stroke="rgb(217,73,83)" stroke-width="1" opacity="0.9921568627450981" d="M 48.5 406 L 49.5 408 L 48.5 406 Z " /><path fill="rgb(217,73,83)" stroke="rgb(217,73,83)" stroke-width="1" opacity="0.9921568627450981" d="M 463.5 406 L 462 408.5 L 458.5 413 L 461 409.5 L 463.5 406 Z " /><path fill="rgb(217,73,83)" stroke="rgb(217,73,83)" stroke-width="1" opacity="0.9921568627450981" d="M 306.5 407 L 305.5 409 L 306.5 407 Z " /><path fill="rgb(217,73,83)" stroke="rgb(217,73,83)" stroke-width="1" opacity="0.9921568627450981" d="M 50.5 409 L 52.5 412 L 50.5 409 Z " /><path fill="rgb(217,73,83)" stroke="rgb(217,73,83)" stroke-width="1" opacity="0.9921568627450981" d="M 53.5 413 L 55.5 416 L 53.5 413 Z " /><path fill="rgb(217,73,83)" stroke="rgb(217,73,83)" stroke-width="1" opacity="0.9921568627450981" d="M 454.5 417 L 455 419 L 453 418.5 L 454.5 417 Z " /><path fill="rgb(217,73,83)" stroke="rgb(217,73,83)" stroke-width="1" opacity="0.9921568627450981" d="M 57.5 418 L 61.5 423 L 57.5 418 Z " /><path fill="rgb(217,73,83)" stroke="rgb(217,73,83)" stroke-width="1" opacity="0.9921568627450981" d="M 452.5 420 L 449.5 424 L 452.5 420 Z " /><path fill="rgb(217,73,83)" stroke="rgb(217,73,83)" stroke-width="1" opacity="0.9921568627450981" d="M 62.5 424 L 72.5 435 L 62.5 424 Z " /><path fill="rgb(217,73,83)" stroke="rgb(217,73,83)" stroke-width="1" opacity="0.9921568627450981" d="M 274.5 428 L 273.5 430 L 274.5 428 Z " /><path fill="rgb(217,73,83)" stroke="rgb(217,73,83)" stroke-width="1" opacity="0.9921568627450981" d="M 444.5 429 L 443.5 431 L 444.5 429 Z " /><path fill="rgb(217,73,83)" stroke="rgb(217,73,83)" stroke-width="1" opacity="0.9921568627450981" d="M 271.5 430 L 270.5 432 L 271.5 430 Z " /><path fill="rgb(217,73,83)" stroke="rgb(217,73,83)" stroke-width="1" opacity="0.9921568627450981" d="M 268.5 432 L 267.5 434 L 268.5 432 Z " /><path fill="rgb(217,73,83)" stroke="rgb(217,73,83)" stroke-width="1" opacity="0.9921568627450981" d="M 441.5 432 L 440.5 434 L 441.5 432 Z " /><path fill="rgb(217,73,83)" stroke="rgb(217,73,83)" stroke-width="1" opacity="0.9921568627450981" d="M 265.5 434 L 264.5 436 L 265.5 434 Z " /><path fill="rgb(217,73,83)" stroke="rgb(217,73,83)" stroke-width="1" opacity="0.9921568627450981" d="M 262.5 436 L 261.5 438 L 262.5 436 Z " /><path fill="rgb(217,73,83)" stroke="rgb(217,73,83)" stroke-width="1" opacity="0.9921568627450981" d="M 437.5 436 L 436.5 438 L 437.5 436 Z " /><path fill="rgb(217,73,83)" stroke="rgb(217,73,83)" stroke-width="1" opacity="0.9921568627450981" d="M 259.5 438 L 258.5 440 L 259.5 438 Z " /><path fill="rgb(217,73,83)" stroke="rgb(217,73,83)" stroke-width="1" opacity="0.9921568627450981" d="M 256.5 440 L 255.5 442 L 256.5 440 Z " /><path fill="rgb(217,73,83)" stroke="rgb(217,73,83)" stroke-width="1" opacity="0.9921568627450981" d="M 79.5 441 L 87.5 450 L 79.5 441 Z " /><path fill="rgb(217,73,83)" stroke="rgb(217,73,83)" stroke-width="1" opacity="0.9921568627450981" d="M 427 445 L 429 445.5 L 423.5 450 L 424.5 448 L 427 446.5 L 427 445 Z " /><path fill="rgb(217,73,83)" stroke="rgb(217,73,83)" stroke-width="1" opacity="0.9921568627450981" d="M 89.5 450 L 93.5 455 L 89.5 450 Z " /><path fill="rgb(217,73,83)" stroke="rgb(217,73,83)" stroke-width="1" opacity="0.9921568627450981" d="M 420.5 452 L 418.5 455 L 416.5 456 L 418.5 453 L 420.5 452 Z " /><path fill="rgb(217,73,83)" stroke="rgb(217,73,83)" stroke-width="1" opacity="0.9921568627450981" d="M 95.5 455 L 98.5 459 L 95.5 455 Z " /><path fill="rgb(217,73,83)" stroke="rgb(217,73,83)" stroke-width="1" opacity="0.9921568627450981" d="M 412.5 458 L 409.5 462 L 412.5 458 Z " /><path fill="rgb(217,73,83)" stroke="rgb(217,73,83)" stroke-width="1" opacity="0.9921568627450981" d="M 100.5 459 L 102.5 462 L 100.5 459 Z " /><path fill="rgb(217,73,83)" stroke="rgb(217,73,83)" stroke-width="1" opacity="0.9921568627450981" d="M 104.5 462 L 105.5 464 L 104.5 462 Z " /><path fill="rgb(217,73,83)" stroke="rgb(217,73,83)" stroke-width="1" opacity="0.9921568627450981" d="M 407.5 462 L 406.5 464 L 407.5 462 Z " /><path fill="rgb(217,73,83)" stroke="rgb(217,73,83)" stroke-width="1" opacity="0.9921568627450981" d="M 404.5 464 L 402.5 467 L 400.5 468 L 402.5 465 L 404.5 464 Z " /><path fill="rgb(217,73,83)" stroke="rgb(217,73,83)" stroke-width="1" opacity="0.9921568627450981" d="M 108.5 465 L 109.5 467 L 108.5 465 Z " /><path fill="rgb(217,73,83)" stroke="rgb(217,73,83)" stroke-width="1" opacity="0.9921568627450981" d="M 215.5 467 L 214.5 469 L 215.5 467 Z " /><path fill="rgb(217,73,83)" stroke="rgb(217,73,83)" stroke-width="1" opacity="0.9921568627450981" d="M 212.5 469 L 211.5 471 L 212.5 469 Z " /><path fill="rgb(217,73,83)" stroke="rgb(217,73,83)" stroke-width="1" opacity="0.9921568627450981" d="M 396.5 469 L 398 469.5 L 392.5 473 L 393.5 471 L 396.5 469 Z " /><path fill="rgb(217,73,83)" stroke="rgb(217,73,83)" stroke-width="1" opacity="0.9921568627450981" d="M 209.5 471 L 208.5 473 L 209.5 471 Z " /><path fill="rgb(217,73,83)" stroke="rgb(217,73,83)" stroke-width="1" opacity="0.9921568627450981" d="M 206.5 473 L 205.5 475 L 206.5 473 Z " /><path fill="rgb(217,73,83)" stroke="rgb(217,73,83)" stroke-width="1" opacity="0.9921568627450981" d="M 389.5 474 L 388.5 476 L 389.5 474 Z " /><path fill="rgb(217,73,83)" stroke="rgb(217,73,83)" stroke-width="1" opacity="0.9921568627450981" d="M 203.5 475 L 202.5 477 L 203.5 475 Z " /><path fill="rgb(217,73,83)" stroke="rgb(217,73,83)" stroke-width="1" opacity="0.9921568627450981" d="M 200.5 477 L 199.5 479 L 200.5 477 Z " /><path fill="rgb(217,73,83)" stroke="rgb(217,73,83)" stroke-width="1" opacity="0.9921568627450981" d="M 383 477 L 385 477.5 L 383 478.5 L 383 477 Z " /><path fill="rgb(217,73,83)" stroke="rgb(217,73,83)" stroke-width="1" opacity="0.9921568627450981" d="M 377.5 481 L 376.5 483 L 373.5 484 L 374.5 482 L 377.5 481 Z " /><path fill="rgb(217,73,83)" stroke="rgb(217,73,83)" stroke-width="1" opacity="0.9921568627450981" d="M 191.5 483 L 190.5 485 L 191.5 483 Z " /><path fill="rgb(217,73,83)" stroke="rgb(217,73,83)" stroke-width="1" opacity="0.9921568627450981" d="M 369.5 485 L 368.5 487 L 364.5 489 L 364 487 L 369.5 485 Z " /><path fill="rgb(217,73,83)" stroke="rgb(217,73,83)" stroke-width="1" opacity="0.9921568627450981" d="M 360.5 489 L 362 489.5 L 359.5 491 L 360.5 489 Z " /><path fill="rgb(217,73,83)" stroke="rgb(217,73,83)" stroke-width="1" opacity="0.9921568627450981" d="M 353.5 492 L 355 492.5 L 349.5 495 L 349.5 494 L 353.5 492 Z " /><path fill="rgb(217,73,83)" stroke="rgb(217,73,83)" stroke-width="1" opacity="0.9921568627450981" d="M 343.5 496 L 342.5 498 L 341 497.5 L 343.5 496 Z " /><path fill="rgb(217,73,83)" stroke="rgb(217,73,83)" stroke-width="1" opacity="0.9921568627450981" d="M 328.5 501 L 331 501.5 L 328.5 502 L 328.5 501 Z " /><path fill="rgb(217,73,83)" stroke="rgb(217,73,83)" stroke-width="1" opacity="0.9921568627450981" d="M 188.5 503 L 191 503.5 L 188.5 504 L 188.5 503 Z " /><path fill="rgb(217,73,83)" stroke="rgb(217,73,83)" stroke-width="1" opacity="0.9921568627450981" d="M 321.5 503 L 324 503.5 L 321.5 504 L 321.5 503 Z " /><path fill="rgb(217,73,83)" stroke="rgb(217,73,83)" stroke-width="1" opacity="0.9921568627450981" d="M 316.5 504 L 315.5 506 L 312 505.5 L 316.5 504 Z " /><path fill="rgb(217,73,83)" stroke="rgb(217,73,83)" stroke-width="1" opacity="0.9921568627450981" d="M 196.5 505 L 199 505.5 L 196.5 506 L 196.5 505 Z " /><path fill="rgb(217,73,83)" stroke="rgb(217,73,83)" stroke-width="1" opacity="0.9921568627450981" d="M 201.5 506 L 204 506.5 L 201.5 507 L 201.5 506 Z " /><path fill="rgb(217,73,83)" stroke="rgb(217,73,83)" stroke-width="1" opacity="0.9921568627450981" d="M 217.5 509 L 220 509.5 L 217.5 510 L 217.5 509 Z " /><path fill="rgb(217,73,83)" stroke="rgb(217,73,83)" stroke-width="1" opacity="0.9921568627450981" d="M 238.5 511 L 245 511.5 L 238.5 512 L 238.5 511 Z " /><path fill="rgb(217,73,83)" stroke="rgb(217,73,83)" stroke-width="1" opacity="0.9921568627450981" d="M 274.5 511 L 277 511.5 L 274.5 512 L 274.5 511 Z " /><path fill="rgb(218,74,84)" stroke="rgb(218,74,84)" stroke-width="1" opacity="1" d="M 239.5 0 L 241.5 0 L 243.5 1 L 245.5 1 L 247.5 0 L 249.5 0 L 264.5 0 L 266.5 1 L 272.5 1 L 275.5 0 L 285.5 2 L 287.5 2 L 291.5 3 L 293.5 3 L 295.5 2 L 298.5 4 L 301.5 3 L 305.5 5 L 310.5 6 Q 312 3.5 313.5 7 L 317.5 8 L 319.5 8 L 325.5 9 L 331.5 12 L 333.5 12 L 343.5 16 L 345.5 15 L 354.5 20 Q 356 17.5 357.5 21 Q 364.6 21.4 367.5 26 L 369 25.5 L 369 27 L 373 27 L 373 28.5 L 376.5 30 L 378.5 30 L 382.5 34 L 386 34.5 L 385.5 36 L 389 37.5 L 387 44.5 L 390 57 L 382 59 L 380 46.5 L 375.5 41 L 369.5 40 L 364 44.5 L 363 50.5 L 367 63.5 L 360.5 66 L 352 72 L 341 88.5 L 338 98.5 L 338 114.5 L 341 120.5 L 333 127 Q 334.1 129.7 331.5 129 L 312 147.5 Q 312.8 149.8 310.5 149 L 286 172.5 L 289.5 177 L 285.5 173 L 278.5 180 L 255 201.5 Q 255.8 203.8 253.5 203 L 243.5 213 L 242 213 Q 243.1 215.7 240.5 215 L 233 224 L 228 227.5 L 232.5 233 L 227.5 228 L 221.5 234 L 204.5 250 L 202.5 250 L 191.5 251 L 190.5 252 L 167.5 252 L 166.5 251 L 153.5 250 L 138.5 245 L 129.5 245 Q 119.9 246.9 116 254.5 L 65 334.5 L 54.5 346 L 46.5 351 L 22.5 360 L 17 350.5 L 17 348.5 L 15 345.5 L 16 343.5 L 13 339.5 L 13 337.5 L 10 329.5 L 11 327.5 Q 7.9 325.8 9.5 324 L 8 323.5 L 9 321.5 L 7 318.5 L 7 316.5 L 5 311.5 L 6 309.5 L 4 304.5 L 4 302.5 L 2 291.5 L 2 289.5 L 1 284.5 L 2 282.5 L 1 281.5 Q 2.7 273.3 0 269.5 L 0 265.5 L 0 249.5 L 1 247.5 L 0 244.5 L 1 240.5 L 0 238.5 L 2 229.5 L 2 225.5 L 3 221.5 L 2 216.5 L 4 212.5 L 3 210.5 L 6 201.5 L 5.5 200 L 7 199.5 L 7 197.5 L 9 190.5 L 9 188.5 L 12 180.5 L 12 178.5 L 13 176.5 L 13 174.5 L 16 168.5 L 16 166.5 L 22 153.5 L 21.5 152 Q 23.8 152.8 23 150.5 L 22.5 149 L 25 147.5 L 25 145.5 L 31 134.5 L 30 133.5 L 33 130.5 L 35 125 Q 37.7 126.1 37 123.5 L 41 118.5 L 41 116 L 43 116 L 43 113 Q 46 114.3 45 110.5 Q 49.3 108.3 47.5 106 L 51 103.5 L 53.5 98 L 55 98.5 L 58.5 93 Q 61.1 93.8 60 90.5 L 64 88 L 68 81 L 70 81 L 70 79 L 72 79 Q 70.9 76.3 73.5 77 L 79.5 70 L 85 65.5 L 85.5 64 Q 87.3 66.8 89 62.5 Q 88.3 60.3 90.5 61 L 93 60 L 94.5 57 L 98 56 L 98.5 53 L 100 53.5 Q 99.3 51.3 101.5 52 L 107 49 L 109 45 L 111.5 45 L 118 40.5 L 118.5 39 L 119.5 40 L 122.5 37 L 124.5 37 L 134.5 30 L 135.5 31 L 138.5 28 L 149 24 L 149.5 22 L 151.5 23 L 157.5 19 L 167 17 L 167.5 15 L 169 15.5 Q 168.2 12.9 171.5 14 L 179.5 11 L 184.5 11 L 189.5 8 L 191.5 8 L 194.5 8 L 200.5 5 L 204.5 5 L 213.5 3 L 217.5 3 L 228.5 2 L 229.5 1 L 231.5 1 Q 237.8 2.8 239.5 0 Z " /><path fill="rgb(218,74,84)" stroke="rgb(218,74,84)" stroke-width="1" opacity="1" d="M 405.5 48 L 410 51.5 Q 410.8 54.1 407.5 53 L 406 53.5 L 405.5 48 Z " /><path fill="rgb(218,74,84)" stroke="rgb(218,74,84)" stroke-width="1" opacity="1" d="M 459.5 101 Q 462.1 100.2 461 103.5 L 465 106.5 Q 464.3 110.3 466.5 111 L 469 112.5 L 471.5 119 L 473 118.5 L 472.5 120 Q 475.5 119.2 474 123 L 476 123 L 476 125.5 L 477 128 L 479 128.5 L 479 130.5 L 482 134.5 L 481.5 136 Q 483.8 135.3 483 137.5 Q 486.1 139.3 484.5 141 L 486 141.5 L 485.5 143 Q 488.1 142.2 487 145.5 L 489 149.5 L 495 164.5 L 497 166.5 L 496 168.5 L 501 178.5 L 501 183.5 L 506 197.5 L 506 201.5 L 508 208.5 L 507.5 210 L 509 210.5 L 508 213.5 L 510 218.5 L 509 220.5 L 511 226.5 L 511 230.5 L 512 234.5 L 511 238.5 Q 513.5 240 512 245.5 L 511 248.5 L 512 251.5 L 512 260.5 L 511 261.5 L 511 263.5 L 512 269.5 L 511 272.5 L 512 274.5 L 511 277.5 L 511 279.5 L 510 282.5 L 511 284.5 L 510 285.5 L 510 293.5 L 508 297.5 L 509 299.5 L 507 303.5 L 507 311.5 Q 503.8 310.5 505 316.5 L 500 332.5 Q 502.5 334 499 335.5 L 496 343.5 L 497 345.5 L 492 353.5 L 491 360 Q 488.3 358.9 489 361.5 L 489.5 363 L 488 362.5 L 488 365.5 Q 485 364.5 486 369.5 L 481 377.5 L 481.5 379 L 479 380.5 Q 478.2 386.7 474 389.5 L 474.5 391 Q 471.9 390.3 473 393 L 471 393 L 471 396 L 469 396 L 469 400 Q 466 398.8 467 402.5 L 464 404.5 L 464.5 406 L 461 408.5 L 458 412.5 L 458.5 414 L 456 414.5 Q 458.3 415.8 455.5 417 L 453 418.5 L 453.5 420 L 449 423.5 L 448 427 L 445 427.5 L 445.5 429 L 443 430.5 Q 443.8 432.8 441.5 432 L 438.5 436 L 436 437.5 L 433.5 441 Q 430.9 440.3 432 443 L 430 443 L 430 445 L 427 445 L 427 446.5 L 423 449.5 L 421.5 452 L 416 455.5 L 414 458.5 Q 411.3 456.6 408.5 462 L 406 463.5 L 405.5 465 L 403.5 465 L 400 467.5 Q 400.9 470.5 396.5 469 L 392 472.5 L 390.5 475 Q 389 472.5 387.5 476 Q 385.3 475.3 386 477.5 L 384.5 477 L 381.5 479 L 379 480 L 378.5 482 L 376.5 482 L 373 483.5 L 372.5 485 L 371 484.5 L 370.5 486 L 368.5 486 L 364 487 Q 365.3 490.3 360.5 489 Q 358.3 493.3 356 491.5 L 355.5 493 L 353.5 492 L 346 495 Q 347.1 497.7 344.5 497 L 342.5 497 L 317.5 505 L 315.5 505 L 304.5 508 L 303.5 507 L 301.5 509 L 297.5 509 L 293.5 510 L 291.5 509 L 285.5 511 L 281.5 511 L 277.5 512 L 274.5 511 L 272.5 512 L 270.5 512 L 268.5 511 L 266.5 512 L 264.5 512 L 262.5 511 L 261.5 512 L 247.5 512 L 244.5 511 L 236.5 512 L 235.5 511 L 226.5 511 L 221.5 509 L 219.5 509 L 212.5 508 Q 211 510.5 209.5 507 L 207.5 508 L 201.5 506 Q 200 508.5 198.5 505 L 183 502 L 190 485.5 L 193.5 482 L 361.5 372 L 394.5 350 L 400 344.5 L 401 334.5 L 396.5 327 L 390.5 324 L 274.5 324 Q 264.3 321.3 259 313.5 L 255 304.5 L 254 295.5 L 274 274.5 L 269.5 269 L 274.5 274 L 278 270.5 Q 277.3 268.3 279.5 269 L 299 248.5 L 303 242 L 304.5 242 L 317 229.5 L 329 216.5 L 325.5 212 L 329.5 216 L 334 211.5 L 381.5 161 Q 385 165.5 394.5 164 L 403.5 161 L 433.5 155 Q 441.3 152.8 446 147.5 Q 454.3 140.8 452 123.5 Q 449.3 121.8 451 115.5 Q 452.8 105.8 459.5 101 Z " /><path fill="rgb(218,74,84)" stroke="rgb(218,74,84)" stroke-width="1" opacity="1" d="M 294.5 181 L 299.5 187 L 294.5 181 Z " /><path fill="rgb(218,74,84)" stroke="rgb(218,74,84)" stroke-width="1" opacity="1" d="M 305.5 192 L 309.5 197 L 305.5 192 Z " /><path fill="rgb(218,74,84)" stroke="rgb(218,74,84)" stroke-width="1" opacity="1" d="M 315.5 202 L 320.5 208 L 315.5 202 Z " /><path fill="rgb(218,74,84)" stroke="rgb(218,74,84)" stroke-width="1" opacity="1" d="M 238.5 238 L 242.5 243 L 238.5 238 Z " /><path fill="rgb(218,74,84)" stroke="rgb(218,74,84)" stroke-width="1" opacity="1" d="M 248.5 248 L 253.5 254 L 248.5 248 Z " /><path fill="rgb(218,74,84)" stroke="rgb(218,74,84)" stroke-width="1" opacity="1" d="M 258.5 258 L 263.5 264 L 258.5 258 Z " /><path fill="rgb(231,223,201)" stroke="rgb(231,223,201)" stroke-width="1" opacity="0.9921568627450981" d="M 389.5 37 L 388.5 39 L 389.5 37 Z " /><path fill="rgb(231,223,201)" stroke="rgb(231,223,201)" stroke-width="1" opacity="0.9921568627450981" d="M 369.5 40 L 374 40.5 L 369.5 41 L 369.5 40 Z " /><path fill="rgb(231,223,201)" stroke="rgb(231,223,201)" stroke-width="1" opacity="0.9921568627450981" d="M 387.5 41 L 388 44.5 L 387 44.5 L 387.5 41 Z " /><path fill="rgb(231,223,201)" stroke="rgb(231,223,201)" stroke-width="1" opacity="0.9921568627450981" d="M 363.5 46 L 364 50.5 L 363 50.5 L 363.5 46 Z " /><path fill="rgb(231,223,201)" stroke="rgb(231,223,201)" stroke-width="1" opacity="0.9921568627450981" d="M 380.5 50 L 381 52.5 L 380 52.5 L 380.5 50 Z " /><path fill="rgb(231,223,201)" stroke="rgb(231,223,201)" stroke-width="1" opacity="0.9921568627450981" d="M 480.5 53 L 481.5 55 L 480.5 53 Z " /><path fill="rgb(231,223,201)" stroke="rgb(231,223,201)" stroke-width="1" opacity="0.9921568627450981" d="M 446.5 58 L 444.5 61 L 446.5 58 Z " /><path fill="rgb(231,223,201)" stroke="rgb(231,223,201)" stroke-width="1" opacity="0.9921568627450981" d="M 455.5 58 L 457.5 61 L 455.5 58 Z " /><path fill="rgb(231,223,201)" stroke="rgb(231,223,201)" stroke-width="1" opacity="0.9921568627450981" d="M 468.5 64 L 470.5 67 L 468.5 64 Z " /><path fill="rgb(231,223,201)" stroke="rgb(231,223,201)" stroke-width="1" opacity="0.9921568627450981" d="M 481.5 64 L 479.5 67 L 481.5 64 Z " /><path fill="rgb(231,223,201)" stroke="rgb(231,223,201)" stroke-width="1" opacity="0.9921568627450981" d="M 420.5 66 L 420 67.5 L 419.5 69 L 419 67.5 L 420.5 66 Z " /><path fill="rgb(231,223,201)" stroke="rgb(231,223,201)" stroke-width="1" opacity="0.9921568627450981" d="M 398.5 69 L 396.5 72 L 398.5 69 Z " /><path fill="rgb(231,223,201)" stroke="rgb(231,223,201)" stroke-width="1" opacity="0.9921568627450981" d="M 407.5 69 L 409.5 72 L 407.5 69 Z " /><path fill="rgb(231,223,201)" stroke="rgb(231,223,201)" stroke-width="1" opacity="0.9921568627450981" d="M 420.5 75 L 422.5 78 L 420.5 75 Z " /><path fill="rgb(231,223,201)" stroke="rgb(231,223,201)" stroke-width="1" opacity="0.9921568627450981" d="M 433.5 75 L 431.5 78 L 433.5 75 Z " /><path fill="rgb(231,223,201)" stroke="rgb(231,223,201)" stroke-width="1" opacity="0.9921568627450981" d="M 424.5 78 L 430 78.5 L 424.5 79 L 424.5 78 Z " /><path fill="rgb(231,223,201)" stroke="rgb(231,223,201)" stroke-width="1" opacity="0.9921568627450981" d="M 398.5 82 L 399.5 84 L 398.5 82 Z " /><path fill="rgb(231,223,201)" stroke="rgb(231,223,201)" stroke-width="1" opacity="0.9921568627450981" d="M 372.5 86 L 374.5 89 L 372.5 86 Z " /><path fill="rgb(231,223,201)" stroke="rgb(231,223,201)" stroke-width="1" opacity="0.9921568627450981" d="M 385.5 86 L 383.5 89 L 385.5 86 Z " /><path fill="rgb(231,223,201)" stroke="rgb(231,223,201)" stroke-width="1" opacity="0.9921568627450981" d="M 377.5 89 L 382 89.5 L 377.5 90 L 377.5 89 Z " /><path fill="rgb(231,223,201)" stroke="rgb(231,223,201)" stroke-width="1" opacity="0.9921568627450981" d="M 343.5 123 L 348 126.5 L 344.5 124 L 55 412.5 L 54.5 414 L 54 412.5 L 343.5 123 Z " /><path fill="rgb(231,223,201)" stroke="rgb(231,223,201)" stroke-width="1" opacity="0.9921568627450981" d="M 354.5 133 L 359 137.5 L 67.5 429 L 358 137.5 L 354.5 133 Z " /><path fill="rgb(231,223,201)" stroke="rgb(231,223,201)" stroke-width="1" opacity="0.9921568627450981" d="M 364.5 143 L 368.5 148 L 364.5 144 L 74 434.5 L 77 438.5 L 73 435.5 L 364.5 143 Z " /><path fill="rgb(231,223,201)" stroke="rgb(231,223,201)" stroke-width="1" opacity="0.9921568627450981" d="M 375.5 154 L 379 158.5 L 87.5 449 L 85.5 446 L 88.5 448 L 378 157.5 L 375.5 154 Z " /><path fill="rgb(231,223,201)" stroke="rgb(231,223,201)" stroke-width="1" opacity="0.9921568627450981" d="M 56.5 416 L 57.5 418 L 56.5 416 Z " /><path fill="rgb(231,223,201)" stroke="rgb(231,223,201)" stroke-width="1" opacity="0.9921568627450981" d="M 63.5 424 L 65.5 427 L 63.5 424 Z " /><path fill="rgb(241,243,245)" stroke="rgb(241,243,245)" stroke-width="1" opacity="0.9882352941176471" d="M 464.5 18 Q 473.9 16.6 476 22.5 L 479 36.5 L 478 36.5 L 475 23.5 L 470.5 19 Q 461.5 17.5 460 23.5 L 460 29.5 L 463 40.5 L 461 39.5 Q 461.6 33.4 459 30.5 L 459 23.5 L 462.5 19 L 464.5 18 Z " /><path fill="rgb(241,243,245)" stroke="rgb(241,243,245)" stroke-width="1" opacity="0.9882352941176471" d="M 441.5 23 Q 448.8 22.2 451 26.5 L 455 41.5 L 453 40.5 Q 453.2 29.8 447.5 25 L 442.5 24 L 437 27.5 L 436 35.5 L 439 45.5 L 437 44.5 L 435 35.5 L 435 28.5 L 437.5 25 L 441.5 23 Z " /><path fill="rgb(241,243,245)" stroke="rgb(241,243,245)" stroke-width="1" opacity="0.9882352941176471" d="M 415.5 29 Q 425 27 427 32.5 L 431 47.5 L 430 47.5 L 427 34.5 L 422.5 30 Q 413.5 28.5 412 34.5 L 412 40.5 L 415 51.5 L 413 50.5 Q 413.6 44.4 411 41.5 L 411 34.5 L 415.5 29 Z " /><path fill="rgb(241,243,245)" stroke="rgb(241,243,245)" stroke-width="1" opacity="0.9882352941176471" d="M 393.5 34 Q 400.8 33.2 403 37.5 L 405 47.5 L 404 47.5 Q 404.3 39.3 399.5 36 L 393.5 35 L 389.5 37 L 389.5 36 L 393.5 34 Z " /><path fill="rgb(241,244,246)" stroke="rgb(241,244,246)" stroke-width="1" opacity="1" d="M 464.5 19 Q 473.5 17.5 475 23.5 L 478 37 L 463.5 40 Q 459.5 34 460 23.5 L 464.5 19 Z " /><path fill="rgb(241,244,246)" stroke="rgb(241,244,246)" stroke-width="1" opacity="1" d="M 442.5 24 Q 448.7 23.3 450 27.5 L 454 43 L 439.5 46 L 438 44.5 Q 438.6 38.4 436 35.5 L 436 29.5 L 439.5 25 L 442.5 24 Z " /><path fill="rgb(241,244,246)" stroke="rgb(241,244,246)" stroke-width="1" opacity="1" d="M 416.5 30 Q 425.5 28.5 427 34.5 L 430 48 L 415.5 51 Q 411.5 45 412 34.5 L 416.5 30 Z " /><path fill="rgb(241,244,246)" stroke="rgb(241,244,246)" stroke-width="1" opacity="1" d="M 393.5 35 Q 400.4 34.1 402 38.5 L 406 54 L 391.5 57 L 388 47.5 L 388 39.5 L 393.5 35 Z " /><path fill="rgb(241,244,246)" stroke="rgb(241,244,246)" stroke-width="1" opacity="1" d="M 368.5 41 Q 375.8 39.8 378 43.5 L 382 59 L 367.5 63 L 366 61.5 L 364 52.5 L 364 45.5 L 366.5 42 L 368.5 41 Z " /><path fill="rgb(241,244,246)" stroke="rgb(241,244,246)" stroke-width="1" opacity="1" d="M 472.5 52 Q 480.1 50.9 482 55.5 L 483 61.5 L 478.5 67 L 474.5 68 L 468 63.5 L 467 58.5 L 470.5 53 L 472.5 52 Z " /><path fill="rgb(241,244,246)" stroke="rgb(241,244,246)" stroke-width="1" opacity="1" d="M 450.5 57 Q 456.1 57.5 458 61.5 L 459 67.5 L 455.5 72 L 448.5 73 L 445 70.5 L 443 63.5 L 447.5 58 L 450.5 57 Z " /><path fill="rgb(241,244,246)" stroke="rgb(241,244,246)" stroke-width="1" opacity="1" d="M 424.5 63 Q 432.1 61.9 434 66.5 L 435 72.5 L 430.5 78 Q 421.8 79.8 420 74.5 L 419 69.5 L 422.5 64 L 424.5 63 Z " /><path fill="rgb(241,244,246)" stroke="rgb(241,244,246)" stroke-width="1" opacity="1" d="M 402.5 68 Q 408.1 68.5 410 72.5 L 411 78.5 L 407.5 83 L 400.5 84 L 397 82 L 395 74.5 L 399.5 69 L 402.5 68 Z " /><path fill="rgb(241,244,246)" stroke="rgb(241,244,246)" stroke-width="1" opacity="1" d="M 376.5 74 Q 384.1 72.9 386 77.5 L 387 83.5 L 382.5 89 Q 373.8 90.8 372 85.5 L 371 80.5 L 374.5 75 L 376.5 74 Z " /><path fill="rgb(241,244,246)" stroke="rgb(241,244,246)" stroke-width="1" opacity="1" d="M 343.5 124 L 348 127.5 L 57.5 417 Q 54.5 416.5 55 412.5 L 343.5 124 Z " /><path fill="rgb(241,244,246)" stroke="rgb(241,244,246)" stroke-width="1" opacity="1" d="M 353.5 134 L 358 137.5 L 67.5 428 L 66 428 L 64 423.5 L 353.5 134 Z " /><path fill="rgb(241,244,246)" stroke="rgb(241,244,246)" stroke-width="1" opacity="1" d="M 364.5 144 L 368 148.5 L 77.5 439 L 74 435.5 L 364.5 144 Z " /><path fill="rgb(241,244,246)" stroke="rgb(241,244,246)" stroke-width="1" opacity="1" d="M 374.5 154 L 378 158.5 L 87.5 448 L 84 446 L 84 444.5 L 374.5 154 Z " /><path fill="rgb(69,64,69)" stroke="rgb(69,64,69)" stroke-width="1" opacity="1" d="M 481.5 36 Q 500.7 34.8 507 46.5 L 512 59.5 L 512 71.5 Q 509.6 81.1 502.5 86 L 491.5 91 L 487.5 91 L 464.5 97 L 455 104.5 Q 450.2 110.2 450 120.5 L 451 121.5 L 452 132.5 L 451 137.5 L 445 148 L 434.5 154 L 395.5 163 L 386.5 163 L 340 117.5 L 338 104.5 L 340 93.5 L 345 82.5 L 357.5 69 L 371.5 62 L 396.5 57 L 412.5 52 L 418.5 52 L 437.5 46 L 439.5 47 L 453.5 44 L 459.5 41 L 466.5 41 Q 469.4 38.4 475.5 39 L 481.5 36 Z M 473 51 L 471 52 L 466 60 L 467 64 L 472 68 L 481 67 L 484 62 L 483 56 Q 481 50 473 51 Z M 448 57 L 443 62 L 442 66 L 444 71 L 450 74 L 456 73 L 460 67 L 458 60 Q 455 56 448 57 Z M 425 62 L 423 63 L 418 71 Q 419 77 424 79 L 431 79 L 434 77 L 436 73 L 435 67 Q 433 61 425 62 Z M 400 68 L 394 76 L 396 82 L 402 85 L 408 84 L 412 78 L 410 71 Q 407 67 400 68 Z M 377 73 L 375 74 L 370 81 L 371 86 Q 373 92 383 90 L 388 84 L 387 78 Q 385 72 377 73 Z " /><path fill="rgb(69,64,69)" stroke="rgb(69,64,69)" stroke-width="1" opacity="1" d="M 315.5 145 L 318 146.5 L 314.5 151 Q 309 148 315.5 145 Z " /><path fill="rgb(69,64,69)" stroke="rgb(69,64,69)" stroke-width="1" opacity="1" d="M 323.5 153 L 329 157.5 L 324.5 161 L 320 156.5 L 323.5 153 Z " /><path fill="rgb(69,64,69)" stroke="rgb(69,64,69)" stroke-width="1" opacity="1" d="M 333.5 163 L 339 167.5 L 334.5 171 L 330 166.5 L 333.5 163 Z " /><path fill="rgb(69,64,69)" stroke="rgb(69,64,69)" stroke-width="1" opacity="1" d="M 285.5 173 Q 292.5 176.5 285.5 180 L 282 177.5 L 285.5 173 Z " /><path fill="rgb(69,64,69)" stroke="rgb(69,64,69)" stroke-width="1" opacity="1" d="M 344.5 173 L 349 178.5 L 345.5 182 L 341 177.5 L 344.5 173 Z " /><path fill="rgb(69,64,69)" stroke="rgb(69,64,69)" stroke-width="1" opacity="1" d="M 294.5 182 L 299 187.5 L 295.5 191 L 291 186.5 L 294.5 182 Z " /><path fill="rgb(69,64,69)" stroke="rgb(69,64,69)" stroke-width="1" opacity="1" d="M 354.5 183 L 357 186.5 L 353.5 190 L 351 187.5 L 354.5 183 Z " /><path fill="rgb(69,64,69)" stroke="rgb(69,64,69)" stroke-width="1" opacity="1" d="M 304.5 192 L 309 197.5 L 305.5 201 L 301 196.5 L 304.5 192 Z " /><path fill="rgb(69,64,69)" stroke="rgb(69,64,69)" stroke-width="1" opacity="1" d="M 258.5 199 L 263 202.5 L 258.5 206 Q 251.5 202.5 258.5 199 Z " /><path fill="rgb(69,64,69)" stroke="rgb(69,64,69)" stroke-width="1" opacity="1" d="M 314.5 203 L 320 207.5 L 315.5 211 L 311 206.5 L 314.5 203 Z " /><path fill="rgb(69,64,69)" stroke="rgb(69,64,69)" stroke-width="1" opacity="1" d="M 268.5 208 L 273 213.5 L 269.5 217 L 265 212.5 L 268.5 208 Z " /><path fill="rgb(69,64,69)" stroke="rgb(69,64,69)" stroke-width="1" opacity="1" d="M 324.5 213 L 328 215.5 L 324.5 220 Q 317.5 216.5 324.5 213 Z " /><path fill="rgb(69,64,69)" stroke="rgb(69,64,69)" stroke-width="1" opacity="1" d="M 278.5 218 L 283 223.5 L 279.5 227 L 275 222.5 L 278.5 218 Z " /><path fill="rgb(69,64,69)" stroke="rgb(69,64,69)" stroke-width="1" opacity="1" d="M 232.5 224 L 237 228.5 L 233.5 232 L 228 227.5 L 232.5 224 Z " /><path fill="rgb(69,64,69)" stroke="rgb(69,64,69)" stroke-width="1" opacity="1" d="M 288.5 229 L 294 233.5 L 289.5 237 L 285 232.5 L 288.5 229 Z " /><path fill="rgb(69,64,69)" stroke="rgb(69,64,69)" stroke-width="1" opacity="1" d="M 242.5 234 L 247 239.5 L 243.5 243 L 239 238.5 L 242.5 234 Z " /><path fill="rgb(69,64,69)" stroke="rgb(69,64,69)" stroke-width="1" opacity="1" d="M 298.5 239 L 303 242.5 L 299.5 247 L 295 242.5 L 298.5 239 Z " /><path fill="rgb(69,64,69)" stroke="rgb(69,64,69)" stroke-width="1" opacity="1" d="M 252.5 244 L 257 249.5 L 253.5 253 L 249 248.5 L 252.5 244 Z " /><path fill="rgb(69,64,69)" stroke="rgb(69,64,69)" stroke-width="1" opacity="1" d="M 128.5 246 L 138.5 246 L 160.5 252 L 187.5 253 L 202.5 250 Q 204 252.5 205.5 249 L 211 254.5 L 206.5 258 L 201.5 252 L 184 268.5 L 190 275.5 L 156.5 309 L 152.5 305 L 145.5 303 Q 138.3 304.8 135 310.5 Q 132.7 313.7 134 320.5 L 139 326.5 L 117.5 347 L 110.5 342 L 105.5 342 Q 98.6 343.6 96 349.5 L 95 357.5 L 100 365.5 L 80.5 384 L 69.5 373 Q 65.8 369.7 57.5 371 L 38.5 389 L 37 389 L 24 364.5 L 23 360 L 51.5 349 L 63 338.5 L 117 254.5 L 123.5 248 L 128.5 246 Z " /><path fill="rgb(69,64,69)" stroke="rgb(69,64,69)" stroke-width="1" opacity="1" d="M 262.5 255 L 268 259.5 L 263.5 263 L 259 258.5 L 262.5 255 Z " /><path fill="rgb(69,64,69)" stroke="rgb(69,64,69)" stroke-width="1" opacity="1" d="M 216.5 260 L 221 265.5 L 217.5 269 L 213 264.5 L 216.5 260 Z " /><path fill="rgb(69,64,69)" stroke="rgb(69,64,69)" stroke-width="1" opacity="1" d="M 272.5 265 L 278 269.5 L 273.5 273 L 269 268.5 L 272.5 265 Z " /><path fill="rgb(69,64,69)" stroke="rgb(69,64,69)" stroke-width="1" opacity="1" d="M 226.5 270 L 231 275.5 L 227.5 279 L 223 274.5 L 226.5 270 Z " /><path fill="rgb(69,64,69)" stroke="rgb(69,64,69)" stroke-width="1" opacity="1" d="M 195.5 281 L 200 286.5 L 166.5 319 L 162 314.5 L 195.5 281 Z " /><path fill="rgb(69,64,69)" stroke="rgb(69,64,69)" stroke-width="1" opacity="1" d="M 236.5 281 L 242 285.5 L 237.5 289 L 233 284.5 L 236.5 281 Z " /><path fill="rgb(69,64,69)" stroke="rgb(69,64,69)" stroke-width="1" opacity="1" d="M 205.5 291 L 210 296.5 L 176.5 329 L 172 324.5 L 205.5 291 Z " /><path fill="rgb(69,64,69)" stroke="rgb(69,64,69)" stroke-width="1" opacity="1" d="M 246.5 291 L 254 297.5 L 255 307.5 Q 258.3 316.3 265.5 321 L 276.5 325 L 391.5 325 L 397 328.5 Q 401.7 332.3 400 342.5 L 394.5 349 L 234.5 454 L 189 485.5 L 181.5 501 Q 141.3 488.7 111 466.5 L 130 446.5 Q 132.3 443.3 131 436.5 L 129 432.5 L 117 420.5 L 136.5 401 L 140.5 405 Q 143.2 407.8 149.5 407 L 158 400.5 Q 160.8 397.8 160 391.5 L 154 383.5 L 175.5 363 L 182.5 368 L 189.5 368 L 197 361.5 L 199 355.5 Q 197.7 348.3 193 344.5 L 226.5 312 L 233.5 318 L 250 300.5 L 243 294.5 L 246.5 291 Z M 165 451 L 160 452 L 154 455 L 150 463 Q 149 470 152 474 L 161 480 Q 169 481 173 478 Q 178 475 179 468 Q 180 461 177 459 L 172 453 L 165 451 Z " /><path fill="rgb(69,64,69)" stroke="rgb(69,64,69)" stroke-width="1" opacity="1" d="M 215.5 302 L 221 306.5 L 187.5 340 L 183 335.5 L 215.5 302 Z " /><path fill="rgb(69,64,69)" stroke="rgb(69,64,69)" stroke-width="1" opacity="1" d="M 144.5 332 L 149 337.5 L 128.5 358 L 124 353.5 L 144.5 332 Z " /><path fill="rgb(69,64,69)" stroke="rgb(69,64,69)" stroke-width="1" opacity="1" d="M 154.5 342 L 159 347.5 L 138.5 368 L 134 363.5 L 154.5 342 Z " /><path fill="rgb(69,64,69)" stroke="rgb(69,64,69)" stroke-width="1" opacity="1" d="M 164.5 353 L 170 357.5 L 148.5 378 L 144 373.5 L 164.5 353 Z " /><path fill="rgb(69,64,69)" stroke="rgb(69,64,69)" stroke-width="1" opacity="1" d="M 105.5 371 L 111 375.5 L 91.5 395 L 87 390.5 L 105.5 371 Z " /><path fill="rgb(69,64,69)" stroke="rgb(69,64,69)" stroke-width="1" opacity="1" d="M 115.5 381 L 121 385.5 L 101.5 405 L 97 400.5 L 115.5 381 Z " /><path fill="rgb(69,64,69)" stroke="rgb(69,64,69)" stroke-width="1" opacity="1" d="M 126.5 391 L 131 396.5 L 111.5 415 L 107 410.5 L 126.5 391 Z " /></svg>