<svg xmlns="http://www.w3.org/2000/svg" xmlns:xlink="http://www.w3.org/1999/xlink">

  <symbol id="minus" viewBox="0 0 512 512">
    <path d="M64 224h384v64H64z"/>
  </symbol>

  <symbol id="plus" viewBox="0 0 512 512">
    <path d="M224 64h64v160h160v64H288v160h-64V288H64v-64h160z"/>
  </symbol>

  <symbol id="trash" viewBox="0 0 448 512">
    <path d="M432 32H312l-9.4-18.7A24 24 0 0 0 281.1 0H166.8a23.72 23.72 0 0 0 -21.4 13.3L136 32H16A16 16 0 0 0 0 48v32a16 16 0 0 0 16 16h416a16 16 0 0 0 16 -16V48a16 16 0 0 0 -16 -16zM53.2 467a48 48 0 0 0 47.9 45h245.8a48 48 0 0 0 47.9 -45L416 128H32z"/>
  </symbol>

  <symbol id="cart" viewBox="0 0 576 512">
    <path d="M528.12 301.319l47.273-208C578.806 78.301 567.391 64 551.99 64H159.208l-9.166-44.81C147.758 8.021 137.93 0 126.529 0H24C10.745 0 0 10.745 0 24v16c0 13.255 10.745 24 24 24h69.883l70.248 343.435C147.325 417.1 136 435.222 136 456c0 30.928 25.072 56 56 56s56-25.072 56-56c0-15.674-6.447-29.835-16.824-40h209.647C430.447 426.165 424 440.326 424 456c0 30.928 25.072 56 56 56s56-25.072 56-56c0-22.172-12.888-41.332-31.579-50.405l5.517-24.276c3.413-15.018-8.002-29.319-23.403-29.319H218.117l-6.545-32h293.145c11.206 0 20.92-7.754 23.403-18.681z"/>
  </symbol>

  <symbol id="out-of-stock" viewBox="0 0 512 512">
    <path d="M256 512A256 256 0 1 0 256 0a256 256 0 1 0 0 512zM175 175c9.4-9.4 24.6-9.4 33.9 0l47 47 47-47c9.4-9.4 24.6-9.4 33.9 0s9.4 24.6 0 33.9l-47 47 47 47c9.4 9.4 9.4 24.6 0 33.9s-24.6 9.4-33.9 0l-47-47-47 47c-9.4 9.4-24.6 9.4-33.9 0s-9.4-24.6 0-33.9l47-47-47-47c-9.4-9.4-9.4-24.6 0-33.9z"/>
  </symbol>

  <symbol id="gamepad" viewBox="0 0 512 512">
    <path d="M344.7 273.5c-.9-1.5-2.2-2.8-3.7-3.7l-64-38.4c-2.5-1.5-5.5-1.9-8.2-.9s-4.9 3.1-5.9 5.8L249.3 304H198.7l-13.6-67.8c-1-2.7-3.2-4.8-5.9-5.8s-5.7-.6-8.2 .9l-64 38.4c-1.5 .9-2.8 2.2-3.7 3.7s-1.3 3.2-1.3 4.9v78c0 2.9 1.2 5.7 3.2 7.8s4.9 3.2 7.8 3.2h32c2.2 0 4.2-.9 5.7-2.4s2.4-3.6 2.4-5.7V316.8l33.6-20.2 12.1 60.5c1 5 5.4 8.6 10.5 8.6h47.3c5.1 0 9.4-3.6 10.5-8.6l12.1-60.5 33.6 20.2V355c0 2.2 .9 4.2 2.4 5.7s3.6 2.4 5.7 2.4h32c2.9 0 5.7-1.2 7.8-3.2s3.2-4.9 3.2-7.8v-78c0-1.7-.4-3.4-1.3-4.9zm161-55.8c-2.4-9-7.4-17.3-14.4-23.9C445.7 151 363.4 128 256 128s-189.7 23-235.3 65.8c-7 6.6-12 14.9-14.4 23.9C1.6 235.2 0 252.3 0 270.6c0 26.3 3.3 50.9 9.6 74.3 11.8 43.6 38.5 83 75.7 111.8C119.9 483.6 166.9 502 218 509.7c12.6 1.9 25.3 2.8 38 2.8s25.5-.9 38-2.8c51.1-7.7 98.1-26.1 132.7-53 37.2-28.8 64-68.2 75.7-111.8 6.3-23.4 9.6-48 9.6-74.3 0-18.3-1.6-35.4-6.3-52.8zM152 272c-13.3 0-24-10.7-24-24s10.7-24 24-24 24 10.7 24 24-10.7 24-24 24zm32-64c-13.3 0-24-10.7-24-24s10.7-24 24-24 24 10.7 24 24-10.7 24-24 24zm32 64c-13.3 0-24-10.7-24-24s10.7-24 24-24 24 10.7 24 24-10.7 24-24 24zm120 40c-13.3 0-24-10.7-24-24s10.7-24 24-24 24 10.7 24 24-10.7 24-24 24zm24-48c-13.3 0-24-10.7-24-24s10.7-24 24-24 24 10.7 24 24-10.7 24-24 24zm24 48c-13.3 0-24-10.7-24-24s10.7-24 24-24 24 10.7 24 24-10.7 24-24 24z"/>
  </symbol>

  <symbol id="instagram" viewBox="0 0 512 512">
    <path d="M349.33 69.33a93.62 93.62 0 0 1 93.34 93.34v186.66a93.62 93.62 0 0 1 -93.34 93.34H162.67a93.62 93.62 0 0 1 -93.34 -93.34V162.67a93.62 93.62 0 0 1 93.34 -93.34h186.66m0 -37.33H162.67C90.8 32 32 90.8 32 162.67v186.66C32 421.2 90.8 480 162.67 480h186.66C421.2 480 480 421.2 480 349.33V162.67C480 90.8 421.2 32 349.33 32z"/>
    <path d="M256 128a128 128 0 1 0 128 128 128 128 0 0 0 -128 -128zm0 218.67a90.67 90.67 0 1 1 90.67 -90.67 90.67 90.67 0 0 1 -90.67 90.67z"/>
    <circle cx="384" cy="128" r="32"/>
  </symbol>

  <symbol id="linkedin" viewBox="0 0 512 512">
    <path d="M444.17 32H70.28C49.85 32 32 46.7 32 66.89v374.72C32 461.91 49.85 480 70.28 480h373.89C464.5 480 480 462.25 480 441.61V66.89C480 46.36 464.5 32 444.17 32zM170.87 405.43H106.92V205.88h63.95v199.55zm-32 -225.77c-20.51 0 -37.11 -16.61 -37.11 -37.12 0 -20.51 16.6 -37.12 37.11 -37.12s37.12 16.61 37.12 37.12c0 20.51 -16.61 37.12 -37.12 37.12zm266.55 225.77h-63.95V305.41c0 -23.87 -0.45 -54.62 -33.27 -54.62 -33.28 0 -38.41 26 -38.41 52.93v101.71h-63.95V205.88h61.37v27.27h0.88c8.54 -16.18 29.43 -33.27 60.56 -33.27 64.77 0 76.77 42.62 76.77 98v107.55z"/>
  </symbol>

  <symbol id="mail" viewBox="0 0 512 512">
    <path d="M48 64C21.5 64 0 85.5 0 112c0 15.1 7.1 29.3 19.2 38.4L236.8 313.6c11.4 8.5 27 8.5 38.4 0L492.8 150.4c12.1-9.1 19.2-23.3 19.2-38.4c0-26.5-21.5-48-48-48H48zM0 176V384c0 35.3 28.7 64 64 64H448c35.3 0 64-28.7 64-64V176L294.4 339.2c-22.8 17.1-54 17.1-76.8 0L0 176z"/>
  </symbol>

  <symbol id="sad-face" viewBox="0 0 512 512">
    <path d="M256 8C119 8 8 119 8 256s111 248 248 248 248-111 248-248S393 8 256 8zM160 192c0-17.7 14.3-32 32-32s32 14.3 32 32-14.3 32-32 32-32-14.3-32-32zm192 32c-17.7 0-32-14.3-32-32s14.3-32 32-32 32 14.3 32 32-14.3 32-32 32zm-96 128c-57.6 0-107.6-33.3-132.5-82.5-4.3-8.5-1.1-18.9 7.3-23.4 8.4-4.5 18.9-1.3 23.5 7 17.6 32.3 51.5 54.9 91.7 54.9s74.1-22.6 91.7-54.9c4.6-8.3 15.1-11.4 23.5-7 8.5 4.5 11.6 14.9 7.3 23.4C373.6 318.7 323.6 352 266 352z"/>
  </symbol>

</svg>