<svg xmlns="http://www.w3.org/2000/svg" xmlns:xlink="http://www.w3.org/1999/xlink">

  <symbol id="minus" viewBox="0 0 512 512">
    <path d="M64 224h384v64H64z"/>
  </symbol>

  <symbol id="plus" viewBox="0 0 512 512">
    <path d="M224 64h64v160h160v64H288v160h-64V288H64v-64h160z"/>
  </symbol>

  <symbol id="trash" viewBox="0 0 448 512">
    <path d="M432 32H312l-9.4-18.7A24 24 0 0 0 281.1 0H166.8a23.72 23.72 0 0 0 -21.4 13.3L136 32H16A16 16 0 0 0 0 48v32a16 16 0 0 0 16 16h416a16 16 0 0 0 16 -16V48a16 16 0 0 0 -16 -16zM53.2 467a48 48 0 0 0 47.9 45h245.8a48 48 0 0 0 47.9 -45L416 128H32z"/>
  </symbol>

  <symbol id="instagram" viewBox="0 0 512 512">
    <path d="M349.33 69.33a93.62 93.62 0 0 1 93.34 93.34v186.66a93.62 93.62 0 0 1 -93.34 93.34H162.67a93.62 93.62 0 0 1 -93.34 -93.34V162.67a93.62 93.62 0 0 1 93.34 -93.34h186.66m0 -37.33H162.67C90.8 32 32 90.8 32 162.67v186.66C32 421.2 90.8 480 162.67 480h186.66C421.2 480 480 421.2 480 349.33V162.67C480 90.8 421.2 32 349.33 32z"/>
    <path d="M256 128a128 128 0 1 0 128 128 128 128 0 0 0 -128 -128zm0 218.67a90.67 90.67 0 1 1 90.67 -90.67 90.67 90.67 0 0 1 -90.67 90.67z"/>
    <circle cx="384" cy="128" r="32"/>
  </symbol>

  <symbol id="linkedin" viewBox="0 0 512 512">
    <path d="M444.17 32H70.28C49.85 32 32 46.7 32 66.89v374.72C32 461.91 49.85 480 70.28 480h373.89C464.5 480 480 462.25 480 441.61V66.89C480 46.36 464.5 32 444.17 32zM170.87 405.43H106.92V205.88h63.95v199.55zm-32 -225.77c-20.51 0 -37.11 -16.61 -37.11 -37.12 0 -20.51 16.6 -37.12 37.11 -37.12s37.12 16.61 37.12 37.12c0 20.51 -16.61 37.12 -37.12 37.12zm266.55 225.77h-63.95V305.41c0 -23.87 -0.45 -54.62 -33.27 -54.62 -33.28 0 -38.41 26 -38.41 52.93v101.71h-63.95V205.88h61.37v27.27h0.88c8.54 -16.18 29.43 -33.27 60.56 -33.27 64.77 0 76.77 42.62 76.77 98v107.55z"/>
  </symbol>

  <symbol id="mail" viewBox="0 0 512 512">
    <path d="M48 64C21.5 64 0 85.5 0 112c0 15.1 7.1 29.3 19.2 38.4L236.8 313.6c11.4 8.5 27 8.5 38.4 0L492.8 150.4c12.1-9.1 19.2-23.3 19.2-38.4c0-26.5-21.5-48-48-48H48zM0 176V384c0 35.3 28.7 64 64 64H448c35.3 0 64-28.7 64-64V176L294.4 339.2c-22.8 17.1-54 17.1-76.8 0L0 176z"/>
  </symbol>

</svg>